0
SECTION
2
HEADER
9
$INSUNITS
70
4
9
$ACADVER
1
AC1014
9
$HANDSEED
5
FFFF
0
ENDSEC
0
SECTION
2
TABLES
0
TABLE
2
VPORT
5
8
100
AcDbSymbolTable
0
ENDTAB
0
TABLE
2
LTYPE
5
5
100
AcDbSymbolTable
0
LTYPE
5
14
100
AcDbSymbolTableRecord
100
AcDbLinetypeTableRecord
2
BYBLOCK
70
0
0
LTYPE
5
15
100
AcDbSymbolTableRecord
100
AcDbLinetypeTableRecord
2
BYLAYER
70
0
0
ENDTAB
0
TABLE
2
LAYER
5
2
100
AcDbSymbolTable
70
2
0
LAYER
5
50
100
AcDbSymbolTableRecord
100
AcDbLayerTableRecord
2
0
70
0
6
CONTINUOUS
0
ENDTAB
0
TABLE
2
STYLE
5
3
100
AcDbSymbolTable
70
1
0
STYLE
5
11
100
AcDbSymbolTableRecord
100
AcDbTextStyleTableRecord
2
STANDARD
70
0
0
ENDTAB
0
TABLE
2
VIEW
5
6
100
AcDbSymbolTable
70
0
0
ENDTAB
0
TABLE
2
UCS
5
7
100
AcDbSymbolTable
70
0
0
ENDTAB
0
TABLE
2
APPID
5
9
100
AcDbSymbolTable
70
2
0
APPID
5
12
100
AcDbSymbolTableRecord
100
AcDbRegAppTableRecord
2
ACAD
70
0
0
ENDTAB
0
TABLE
2
DIMSTYLE
5
A
100
AcDbSymbolTable
70
1
0
ENDTAB
0
TABLE
2
BLOCK_RECORD
5
1
100
AcDbSymbolTable
70
1
0
BLOCK_RECORD
5
1F
100
AcDbSymbolTableRecord
100
AcDbBlockTableRecord
2
*MODEL_SPACE
0
BLOCK_RECORD
5
1B
100
AcDbSymbolTableRecord
100
AcDbBlockTableRecord
2
*PAPER_SPACE
0
ENDTAB
0
ENDSEC
0
SECTION
2
BLOCKS
0
BLOCK
5
20
100
AcDbEntity
100
AcDbBlockBegin
2
*MODEL_SPACE
0
ENDBLK
5
21
100
AcDbEntity
100
AcDbBlockEnd
0
BLOCK
5
1C
100
AcDbEntity
100
AcDbBlockBegin
2
*PAPER_SPACE
0
ENDBLK
5
1D
100
AcDbEntity
100
AcDbBlockEnd
0
ENDSEC
0
SECTION
2
ENTITIES
0
LWPOLYLINE
5
100
100
AcDbEntity
8
0
100
AcDbPolyline
90
4
70
1
43
0.0
10
384.50000889599323
20
138
10
394.50000889599323
20
138
10
394.50000889599323
20
135
10
384.50000889599323
20
135
0
LWPOLYLINE
5
101
100
AcDbEntity
8
0
100
AcDbPolyline
90
4
70
1
43
0.0
10
452.00000889599323
20
138
10
462.00000889599323
20
138
10
462.00000889599323
20
135
10
452.00000889599323
20
135
0
LWPOLYLINE
5
102
100
AcDbEntity
8
0
100
AcDbPolyline
90
4
70
1
43
0.0
10
519.50000889599323
20
138
10
529.50000889599323
20
138
10
529.50000889599323
20
135
10
519.50000889599323
20
135
0
LWPOLYLINE
5
103
100
AcDbEntity
8
0
100
AcDbPolyline
90
4
70
1
43
0.0
10
327.00000889599323
20
138
10
327.00000889599323
20
135
10
317.00000889599323
20
135
10
317.00000889599323
20
138
0
LWPOLYLINE
5
104
100
AcDbEntity
8
0
100
AcDbPolyline
90
4
70
1
43
0.0
10
70.500000044703484
20
177.99999999999997
10
80.500000044703484
20
177.99999999999997
10
80.500000044703484
20
175
10
70.500000044703484
20
175
0
LWPOLYLINE
5
105
100
AcDbEntity
8
0
100
AcDbPolyline
90
4
70
1
43
0.0
10
138.00000004470348
20
177.99999999999997
10
148.00000004470348
20
177.99999999999997
10
148.00000004470348
20
175
10
138.00000004470348
20
175
0
LWPOLYLINE
5
106
100
AcDbEntity
8
0
100
AcDbPolyline
90
4
70
1
43
0.0
10
205.50000004470348
20
177.99999999999997
10
215.50000004470348
20
177.99999999999997
10
215.50000004470348
20
175
10
205.50000004470348
20
175
0
LWPOLYLINE
5
107
100
AcDbEntity
8
0
100
AcDbPolyline
90
4
70
1
43
0.0
10
273.00000004470348
20
177.99999999999997
10
283.00000004470348
20
177.99999999999997
10
283.00000004470348
20
175
10
273.00000004470348
20
175
0
LWPOLYLINE
5
108
100
AcDbEntity
8
0
100
AcDbPolyline
90
4
70
1
43
0.0
10
600
20
400
10
0
20
400
10
0
20
0
10
600
20
0
0
LINE
5
109
100
AcDbEntity
8
0
100
AcDbLine
10
166.60432844161988
20
110.32551600138346
30
0
11
166.60432844161988
21
113.3656566619873
31
0
0
SPLINE
5
110
100
AcDbEntity
8
0
100
AcDbSpline
70
4
71
3
72
8
73
4
74
0
42
0.000000001
43
0.0000000001
44
0.0000000001
40
0
40
0
40
0
40
0
40
1
40
1
40
1
40
1
41
1
41
1
41
1
41
1
10
166.60432844161988
20
113.3656566619873
30
0
10
166.60274181365966
20
114.92369705835978
30
0
10
165.34011700948082
20
116.18631782531737
30
0
10
163.78208065032962
20
116.18790647188823
30
0
0
ARC
5
111
100
AcDbEntity
8
0
100
AcDbCircle
10
-163.78274015959909
20
116.75307044798706
30
0
40
0.56516436090071687
210
0
220
-0
230
-1
100
AcDbArc
50
270.06686038412977
51
359.93293473161367
0
LINE
5
112
100
AcDbEntity
8
0
100
AcDbLine
10
163.21757618586221
20
116.75240891774494
30
0
11
163.21757618586221
21
117.88128259976703
31
0
0
SPLINE
5
113
100
AcDbEntity
8
0
100
AcDbSpline
70
4
71
3
72
8
73
4
74
0
42
0.000000001
43
0.0000000001
44
0.0000000001
40
0
40
0
40
0
40
0
40
1
40
1
40
1
40
1
41
1
41
1
41
1
41
1
10
163.21757618586221
20
117.88128259976705
30
0
10
163.21598955790199
20
119.43932097752889
30
0
10
161.95336475372315
20
120.70194578170776
30
0
10
160.39532839457195
20
120.70353240966796
30
0
0
LINE
5
114
100
AcDbEntity
8
0
100
AcDbLine
10
160.39532839457195
20
120.70353240966796
30
0
11
158.89378083546956
21
120.70353240966796
31
0
0
ARC
5
115
100
AcDbEntity
8
0
100
AcDbCircle
10
-158.89324322093535
20
121.25824521655875
30
0
40
0.55471306741238324
210
0
220
-0
230
-1
100
AcDbArc
50
269.94447030285221
51
347.64735390413756
0
LINE
5
116
100
AcDbEntity
8
0
100
AcDbLine
10
158.35137208302817
20
121.13957653045652
30
0
11
157.81332756678265
21
123.25907530784606
31
0
0
ARC
5
117
100
AcDbEntity
8
0
100
AcDbCircle
10
-155.64608022243291
20
122.74584995712738
30
0
40
2.2271868606408489
210
0
220
0
230
-1
100
AcDbArc
50
120.81454992057961
51
166.67722288117048
0
ARC
5
118
100
AcDbEntity
8
0
100
AcDbCircle
10
-155.62180823649297
20
122.71566297875493
30
0
40
2.2655523220697975
210
0
220
0
230
-1
100
AcDbArc
50
76.114778463310117
51
120.95065807539302
0
ARC
5
119
100
AcDbEntity
8
0
100
AcDbCircle
10
-154.53132380123574
20
127.0747147116608
30
0
40
2.2278482079505961
210
0
220
-0
230
-1
100
AcDbArc
50
255.79217706708764
51
348.91445209369306
0
LINE
5
120
100
AcDbEntity
8
0
100
AcDbLine
10
152.34504458109538
20
126.64635643959043
30
0
11
152.29424422581991
21
126.89004311561584
31
0
0
LINE
5
121
100
AcDbEntity
8
0
100
AcDbLine
10
152.29424422581991
20
126.89004311561584
30
0
11
166.34622484842939
21
137.16830786069235
31
0
0
ARC
5
122
100
AcDbEntity
8
0
100
AcDbCircle
10
-164.36149585374301
20
139.89392997369009
30
0
40
3.3716709633668236
210
0
220
0
230
-1
100
AcDbArc
50
143.61809643613657
51
233.93884106286748
0
ARC
5
123
100
AcDbEntity
8
0
100
AcDbCircle
10
-164.34962722038634
20
139.90924055472786
30
0
40
3.3722000916798938
210
0
220
0
230
-1
100
AcDbArc
50
53.603488015373721
51
143.94714398495023
0
LINE
5
124
100
AcDbEntity
8
0
100
AcDbLine
10
162.34866523742676
20
142.62362531026204
30
0
11
147.51350002288819
21
131.77860736846924
31
0
0
ARC
5
125
100
AcDbEntity
8
0
100
AcDbCircle
10
-145.94368531997424
20
126.15406554655181
30
0
40
5.8395024538040241
210
0
220
0
230
-1
100
AcDbArc
50
91.009943961868203
51
105.59446598122605
0
LINE
5
126
100
AcDbEntity
8
0
100
AcDbLine
10
146.04661200841269
20
131.99266084035239
30
0
11
144.26287883122762
21
131.99266084035236
31
0
0
ARC
5
127
100
AcDbEntity
8
0
100
AcDbCircle
10
-144.29956335529886
20
135.40197077792956
30
0
40
3.40950729648273
210
0
220
-0
230
-1
100
AcDbArc
50
270.61648466372213
51
283.65541191369249
0
LINE
5
128
100
AcDbEntity
8
0
100
AcDbLine
10
143.49464003245038
20
132.08883956273397
30
0
11
153.70755023956298
21
144.39690713087717
31
0
0
ARC
5
129
100
AcDbEntity
8
0
100
AcDbCircle
10
-151.11208202743126
20
146.56455961073857
30
0
40
3.3815931916236859
210
0
220
0
230
-1
100
AcDbArc
50
99.720500769442438
51
219.86755867787915
0
ARC
5
130
100
AcDbEntity
8
0
100
AcDbCircle
10
-151.11240322949652
20
146.56463874706375
30
0
40
3.3814609726270022
210
0
220
0
230
-1
100
AcDbArc
50
39.637447910636205
51
99.715362828817973
0
LINE
5
131
100
AcDbEntity
8
0
100
AcDbLine
10
148.50835208892823
20
148.72176553209624
30
0
11
135.19444414774577
21
132.6768931388855
31
0
0
ARC
5
132
100
AcDbEntity
8
0
100
AcDbCircle
10
-134.35789287845631
20
135.91158082886861
30
0
40
3.3411109646161381
210
0
220
-0
230
-1
100
AcDbArc
50
255.49993105382339
51
303.55020711364796
0
ARC
5
133
100
AcDbEntity
8
0
100
AcDbCircle
10
-128.77964501333892
20
127.49106290007681
30
0
40
6.7594822327295887
210
0
220
0
230
-1
100
AcDbArc
50
90.05112364880101
51
123.50931364941543
0
LINE
5
134
100
AcDbEntity
8
0
100
AcDbLine
10
128.78567633628845
20
134.25054244200388
30
0
11
128.30002082188923
21
134.2505424420039
31
0
0
ARC
5
135
100
AcDbEntity
8
0
100
AcDbCircle
10
-128.28975216873491
20
130.89171973549776
30
0
40
3.3588384032249463
210
0
220
0
230
-1
100
AcDbArc
50
33.512875891427669
51
90.175165141308383
0
ARC
5
136
100
AcDbEntity
8
0
100
AcDbCircle
10
-124.04137366770846
20
133.72414427067329
30
0
40
1.7472204218308194
210
0
220
-0
230
-1
100
AcDbArc
50
214.03539894746851
51
304.27888538064519
0
ARC
5
137
100
AcDbEntity
8
0
100
AcDbCircle
10
-121.65103886133905
20
129.97738484278511
30
0
40
2.6984216729799955
210
0
220
0
230
-1
100
AcDbArc
50
46.450090616521749
51
121.4089280378834
0
LINE
5
138
100
AcDbEntity
8
0
100
AcDbLine
10
119.79186363220215
20
131.93313201268515
30
0
11
118.77544069290161
21
130.9167090733846
31
0
0
ARC
5
139
100
AcDbEntity
8
0
100
AcDbCircle
10
-122.11359600118813
20
127.62669384789342
30
0
40
4.6869479457537331
210
0
220
0
230
-1
100
AcDbArc
50
26.896226703761975
51
44.583870834664303
0
ARC
5
140
100
AcDbEntity
8
0
100
AcDbCircle
10
-116.07148173107529
20
130.69586337019359
30
0
40
2.0899967829386421
210
0
220
-0
230
-1
100
AcDbArc
50
207.00209773245507
51
269.61971637790532
0
SPLINE
5
141
100
AcDbEntity
8
0
100
AcDbSpline
70
4
71
3
72
8
73
4
74
0
42
0.000000001
43
0.0000000001
44
0.0000000001
40
0
40
0
40
0
40
0
40
1
40
1
40
1
40
1
41
1
41
1
41
1
41
1
10
116.08535335858663
20
128.605912621816
30
0
10
114.06004900932314
20
128.60326622327167
30
0
10
112.4189286549886
20
126.96214586893717
30
0
10
112.41641548474631
20
124.93697474797565
30
0
0
ARC
5
142
100
AcDbEntity
8
0
100
AcDbCircle
10
-112.1868885408031
20
124.93547206349808
30
0
40
0.2295318628351013
210
0
220
0
230
-1
100
AcDbArc
50
179.62489698609909
51
244.9372165782398
0
LINE
5
143
100
AcDbEntity
8
0
100
AcDbLine
10
112.28412079016367
20
124.72755196889241
30
0
11
109.99369716644287
21
123.58267070452372
31
0
0
ARC
5
144
100
AcDbEntity
8
0
100
AcDbCircle
10
-111.72899117694206
20
120.16217431140639
30
0
40
3.8354974746704129
210
0
220
0
230
-1
100
AcDbArc
50
0.18392875112129412
51
63.100304436707333
0
LINE
5
145
100
AcDbEntity
8
0
100
AcDbLine
10
107.89351346492766
20
120.17448685963949
30
0
11
106.52915472189585
21
119.26112206776936
31
0
0
ARC
5
146
100
AcDbEntity
8
0
100
AcDbCircle
10
-109.02807502079258
20
115.50171554876137
30
0
40
4.51417102416357
210
0
220
-0
230
-1
100
AcDbArc
50
-0.028816435939189009
51
56.387561448233967
0
LINE
5
147
100
AcDbEntity
8
0
100
AcDbLine
10
104.51390456755956
20
115.49944518407185
30
0
11
104.51390456755956
21
115.0590368270874
31
0
0
SPLINE
5
148
100
AcDbEntity
8
0
100
AcDbSpline
70
4
71
3
72
8
73
4
74
0
42
0.000000001
43
0.0000000001
44
0.0000000001
40
0
40
0
40
0
40
0
40
1
40
1
40
1
40
1
41
1
41
1
41
1
41
1
10
104.51390456755956
20
115.0590368270874
30
0
10
103.26742082635562
20
115.05784584681193
30
0
10
102.25734843611717
20
114.04764022827149
30
0
10
102.25602523684502
20
112.8011562347412
30
0
0
LINE
5
149
100
AcDbEntity
8
0
100
AcDbLine
10
102.25602523684501
20
112.8011562347412
30
0
11
102.25602523684502
21
110.54327564239502
31
0
0
LINE
5
150
100
AcDbEntity
8
0
100
AcDbLine
10
102.25602523684502
20
110.54327564239502
30
0
11
101.98812784949939
21
110.54327564239502
31
0
0
ARC
5
151
100
AcDbEntity
8
0
100
AcDbCircle
10
-101.98874402168744
20
108.55461699375661
30
0
40
1.9886587440967549
210
0
220
-0
230
-1
100
AcDbArc
50
-36.01611566924543
51
89.982247297834263
0
LINE
5
152
100
AcDbEntity
8
0
100
AcDbLine
10
100.38021414478621
20
107.38526023228962
30
0
11
100.7434962466359
21
106.49663553237916
31
0
0
ARC
5
153
100
AcDbEntity
8
0
100
AcDbCircle
10
-138.64991935718908
20
122.09736778431888
30
0
40
40.991215642293312
210
0
220
-0
230
-1
100
AcDbArc
50
301.99140392389018
51
337.62993968188096
0
LINE
5
154
100
AcDbEntity
8
0
100
AcDbLine
10
116.93310018380484
20
87.331586837768526
30
0
11
116.93310018380484
21
85.579735596974672
31
0
0
SPLINE
5
155
100
AcDbEntity
8
0
100
AcDbSpline
70
4
71
3
72
8
73
4
74
0
42
0.000000001
43
0.0000000001
44
0.0000000001
40
0
40
0
40
0
40
0
40
1
40
1
40
1
40
1
41
1
41
1
41
1
41
1
10
116.93310018380484
20
85.5797355969747
30
0
10
116.93508548736573
20
83.780656941731763
30
0
10
118.39284332593282
20
82.322501436869288
30
0
10
120.19192399978638
20
82.320248667399085
30
0
0
LINE
5
156
100
AcDbEntity
8
0
100
AcDbLine
10
120.19192399978637
20
82.320248667399071
30
0
11
147.54114287694296
21
82.320248667399085
31
0
0
SPLINE
5
157
100
AcDbEntity
8
0
100
AcDbSpline
70
4
71
3
72
8
73
4
74
0
42
0.000000001
43
0.0000000001
44
0.0000000001
40
0
40
0
40
0
40
0
40
1
40
1
40
1
40
1
41
1
41
1
41
1
41
1
10
147.54114287694296
20
82.320248667399085
30
0
10
149.34035476048788
20
82.32236417134601
30
0
10
150.79837703704834
20
83.780390485127754
30
0
10
150.80062980651857
20
85.579731559753398
30
0
0
LINE
5
158
100
AcDbEntity
8
0
100
AcDbLine
10
150.80062980651857
20
85.579731559753398
30
0
11
150.80062980651857
21
87.332111676533998
31
0
0
ARC
5
159
100
AcDbEntity
8
0
100
AcDbCircle
10
-129.08139821372654
20
122.09903705749817
30
0
40
40.993464374542242
210
0
220
-0
230
-1
100
AcDbArc
50
202.37709289249253
51
238.0065837969488
0
LINE
5
160
100
AcDbEntity
8
0
100
AcDbLine
10
166.9879855791728
20
106.49279613494872
30
0
11
167.35285348892211
21
107.38526023228962
31
0
0
ARC
5
161
100
AcDbEntity
8
0
100
AcDbCircle
10
-165.74486080714485
20
108.55490588383154
30
0
40
1.9883941799402327
210
0
220
0
230
-1
100
AcDbArc
50
156.62623915899735
51
216.03195091636175
0
ARC
5
162
100
AcDbEntity
8
0
100
AcDbCircle
10
-165.77299037700013
20
108.54185062365147
30
0
40
1.9678885022799268
210
0
220
0
230
-1
100
AcDbArc
50
114.98947771400618
51
155.9523872535207
0
ARC
5
163
100
AcDbEntity
8
0
100
AcDbCircle
10
-164.34355342228329
20
139.92974883959823
30
0
40
1.0946090281009722
210
0
220
0
230
-1
100
AcDbArc
50
53.158499624212119
51
98.842554636941657
0
ARC
5
164
100
AcDbEntity
8
0
100
AcDbCircle
10
-164.34983395420406
20
139.91020012718795
30
0
40
1.112998066345841
210
0
220
0
230
-1
100
AcDbArc
50
98.368382937046789
51
143.82818935214814
0
ARC
5
165
100
AcDbEntity
8
0
100
AcDbCircle
10
-164.32932351512471
20
139.88207456929433
30
0
40
1.1462040851513473
210
0
220
0
230
-1
100
AcDbArc
50
143.29836809467056
51
179.34516502584003
0
ARC
5
166
100
AcDbEntity
8
0
100
AcDbCircle
10
-164.34329915708747
20
139.90302410215753
30
0
40
1.1321807970603155
210
0
220
-0
230
-1
100
AcDbArc
50
180.39725566648201
51
233.83821453192974
0
LINE
5
167
100
AcDbEntity
8
0
100
AcDbLine
10
165.01136204401649
20
138.98895335197449
30
0
11
136.43616825739545
21
118.08779454231262
31
0
0
LINE
5
168
100
AcDbEntity
8
0
100
AcDbLine
10
136.43616825739545
20
118.08779454231262
30
0
11
135.3397074063619
21
117.7225289662679
31
0
0
ARC
5
169
100
AcDbEntity
8
0
100
AcDbCircle
10
-134.99435138702393
20
118.75439562499338
30
0
40
1.0881266385316684
210
0
220
-0
230
-1
100
AcDbArc
50
251.49509319796854
51
288.50490680203148
0
LINE
5
170
100
AcDbEntity
8
0
100
AcDbLine
10
134.64899536768596
20
117.7225289662679
30
0
11
132.99530714352923
21
118.27380143801371
31
0
0
SPLINE
5
171
100
AcDbEntity
8
0
100
AcDbSpline
70
4
71
3
72
8
73
4
74
0
42
0.000000001
43
0.0000000001
44
0.0000000001
40
0
40
0
40
0
40
0
40
1
40
1
40
1
40
1
41
1
41
1
41
1
41
1
10
132.99530714352926
20
118.27380143801371
30
0
10
132.96196978886923
20
118.28478267987569
30
0
10
132.92757266362509
20
118.28517832756042
30
0
10
132.89410208066303
20
118.29510181744894
30
0
0
LINE
5
172
100
AcDbEntity
8
0
100
AcDbLine
10
132.89410208066303
20
118.29510181744892
30
0
11
163.68722209930417
21
140.80576146443684
31
0
0
LWPOLYLINE
5
173
100
AcDbEntity
8
0
100
AcDbPolyline
90
4
70
1
43
0.0
10
144.2630039850871
20
129.73491751352947
10
144.71783329645794
20
129.73491751352947
10
136.64386714299522
20
123.83244349161784
10
141.95498027692264
20
130.23300785308533
42
0.105970745009291
0
ARC
5
174
100
AcDbEntity
8
0
100
AcDbCircle
10
-151.10915517088759
20
146.57770545554786
30
0
40
1.1126011570294767
210
0
220
0
230
-1
100
AcDbArc
50
39.352229397184935
51
84.74589264959657
0
ARC
5
175
100
AcDbEntity
8
0
100
AcDbCircle
10
-151.10412114636912
20
146.56145176799967
30
0
40
1.1283443013826984
210
0
220
0
230
-1
100
AcDbArc
50
85.076020191371668
51
219.5554373762123
0
LINE
5
176
100
AcDbEntity
8
0
100
AcDbLine
10
151.97408450444539
20
145.84289445082345
30
0
11
129.18666324615481
21
118.38109261194865
31
0
0
LINE
5
177
100
AcDbEntity
8
0
100
AcDbLine
10
129.18666324615481
20
118.38109261194865
30
0
11
127.77150414784749
21
117.34654456774393
31
0
0
SPLINE
5
178
100
AcDbEntity
8
0
100
AcDbSpline
70
4
71
3
72
8
73
4
74
0
42
0.000000001
43
0.0000000001
44
0.0000000001
40
0
40
0
40
0
40
0
40
1
40
1
40
1
40
1
41
1
41
1
41
1
41
1
10
127.77150414784749
20
117.34654456774393
30
0
10
127.75946515401205
20
117.35752580960592
30
0
10
127.74372200965882
20
117.36242094039916
30
0
10
127.73208068211873
20
117.37406226793924
30
0
0
ARC
5
179
100
AcDbEntity
8
0
100
AcDbCircle
10
-125.36445424472555
20
115.01197035855878
30
0
40
3.3444182058175373
210
0
220
0
230
-1
100
AcDbArc
50
103.84304490544143
51
135.06704520834927
0
LINE
5
180
100
AcDbEntity
8
0
100
AcDbLine
10
126.16464970906576
20
118.25924927393595
30
0
11
150.24882240295412
21
147.28319029808046
31
0
0
SPLINE
5
181
100
AcDbEntity
8
0
100
AcDbSpline
70
4
71
3
72
8
73
4
74
0
42
0.000000001
43
0.0000000001
44
0.0000000001
40
0
40
0
40
0
40
0
40
1
40
1
40
1
40
1
41
1
41
1
41
1
41
1
10
104.51390608151755
20
112.80115219751993
30
0
10
105.76039007504781
20
112.80234317779542
30
0
10
106.77046246528626
20
113.81254879633586
30
0
10
106.77178515990576
20
115.05903278986611
30
0
0
LINE
5
182
100
AcDbEntity
8
0
100
AcDbLine
10
106.77178515990578
20
115.05903278986611
30
0
11
106.77178515990576
21
115.49944114685059
31
0
0
ARC
5
183
100
AcDbEntity
8
0
100
AcDbCircle
10
-109.03270703202486
20
115.49923413432526
30
0
40
2.2609218815962433
210
0
220
0
230
-1
100
AcDbArc
50
0.0052460653711484942
51
56.454170212270846
0
LINE
5
184
100
AcDbEntity
8
0
100
AcDbLine
10
107.78331296841303
20
117.38358607292173
30
0
11
109.15481506983438
21
118.30197720527647
31
0
0
ARC
5
185
100
AcDbEntity
8
0
100
AcDbCircle
10
-107.88478502234192
20
120.18797404706771
30
0
40
2.2737546940644631
210
0
220
-0
230
-1
100
AcDbArc
50
180.09000423161746
51
236.04368008082764
0
ARC
5
186
100
AcDbEntity
8
0
100
AcDbCircle
10
-111.7366990396138
20
120.16514489638971
30
0
40
1.5782796174287717
210
0
220
0
230
-1
100
AcDbArc
50
0.69911179931483414
51
62.724746114225809
0
LINE
5
187
100
AcDbEntity
8
0
100
AcDbLine
10
111.01342759927113
20
121.5679438749949
30
0
11
113.28400727113089
21
122.70343254407248
31
0
0
ARC
5
188
100
AcDbEntity
8
0
100
AcDbCircle
10
-112.17683528076172
20
124.94192387936937
30
0
40
2.4973332325617474
210
0
220
-0
230
-1
100
AcDbArc
50
180.1106292357666
51
243.68270931004622
0
SPLINE
5
189
100
AcDbEntity
8
0
100
AcDbSpline
70
4
71
3
72
8
73
4
74
0
42
0.000000001
43
0.0000000001
44
0.0000000001
40
0
40
0
40
0
40
0
40
1
40
1
40
1
40
1
41
1
41
1
41
1
41
1
10
114.67416385809582
20
124.93710192044576
30
0
10
114.67641259034474
20
125.71552662849426
30
0
10
115.30693066914877
20
126.34591248830159
30
0
10
116.08535537719726
20
126.34829243024188
30
0
0
ARC
5
190
100
AcDbEntity
8
0
100
AcDbCircle
10
-116.06245191917316
20
130.71039639481018
30
0
40
4.362164092063904
210
0
220
-0
230
-1
100
AcDbArc
50
207.16808375411779
51
269.69916823788236
0
ARC
5
191
100
AcDbEntity
8
0
100
AcDbCircle
10
-122.1391398199266
20
127.6097708406577
30
0
40
2.4598938087622466
210
0
220
0
230
-1
100
AcDbArc
50
26.793216436887558
51
44.065011837588656
0
LINE
5
192
100
AcDbEntity
8
0
100
AcDbLine
10
120.37158034642538
20
129.32056336402891
30
0
11
121.38800328572592
21
130.33698630332947
31
0
0
ARC
5
193
100
AcDbEntity
8
0
100
AcDbCircle
10
-121.64629722871899
20
130.01723848733153
30
0
40
0.41104066322246946
210
0
220
0
230
-1
100
AcDbArc
50
51.068542677185178
51
116.73209373922064
0
ARC
5
194
100
AcDbEntity
8
0
100
AcDbCircle
10
-124.04614001791646
20
133.6996189165817
30
0
40
3.9871074974536969
210
0
220
-0
230
-1
100
AcDbArc
50
213.56934727764363
51
303.74707070678068
0
ARC
5
195
100
AcDbEntity
8
0
100
AcDbCircle
10
-128.29558149924512
20
130.87993365151954
30
0
40
1.112733502189317
210
0
220
0
230
-1
100
AcDbArc
50
33.553854304991404
51
90.221725729752663
0
LINE
5
196
100
AcDbEntity
8
0
100
AcDbLine
10
128.29988759358724
20
131.99265882174174
30
0
11
128.78554310798646
21
131.99265882174174
31
0
0
ARC
5
197
100
AcDbEntity
8
0
100
AcDbCircle
10
-128.78085541320308
20
127.49396894625758
30
0
40
4.4986923178037124
210
0
220
0
230
-1
100
AcDbArc
50
90.059702943958683
51
123.46732321608434
0
ARC
5
198
100
AcDbEntity
8
0
100
AcDbCircle
10
-134.35874939770736
20
135.91693966945502
30
0
40
5.6037524501482636
210
0
220
-0
230
-1
100
AcDbArc
50
280.7394121887445
51
303.55054322068054
0
LINE
5
199
100
AcDbEntity
8
0
100
AcDbLine
10
133.31453224817912
20
130.41133778889974
30
0
11
122.80170898437501
21
117.74223666191099
31
0
0
ARC
5
200
100
AcDbEntity
8
0
100
AcDbCircle
10
-122.71079842754173
20
118.81089259170685
30
0
40
1.0725158393383101
210
0
220
-0
230
-1
100
AcDbArc
50
265.13755533519071
51
295.176803982877
0
ARC
5
201
100
AcDbEntity
8
0
100
AcDbCircle
10
-120.75662745849512
20
114.84812524358657
30
0
40
3.3461380620797594
210
0
220
0
230
-1
100
AcDbArc
50
44.956225437266667
51
116.59320440052994
0
LINE
5
202
100
AcDbEntity
8
0
100
AcDbLine
10
118.38874352773031
20
117.21239376068115
30
0
11
117.26251624425252
21
116.08616647720336
31
0
0
ARC
5
203
100
AcDbEntity
8
0
100
AcDbCircle
10
-118.06421548026381
20
115.2914127070003
30
0
40
1.1288734296957672
210
0
220
-0
230
-1
100
AcDbArc
50
-44.998172050195613
51
44.750732802436005
0
ARC
5
204
100
AcDbEntity
8
0
100
AcDbCircle
10
-118.06416555190242
20
115.29146263542455
30
0
40
1.1288734296957639
210
0
220
-0
230
-1
100
AcDbArc
50
225.24919475304586
51
314.99824418115793
0
LINE
5
205
100
AcDbEntity
8
0
100
AcDbLine
10
118.85892033576965
20
114.48976440429688
30
0
11
119.98514761924744
21
115.61599168777465
31
0
0
ARC
5
206
100
AcDbEntity
8
0
100
AcDbCircle
10
-120.7571091053657
20
114.84368413865816
30
0
40
1.0919631342093197
210
0
220
0
230
-1
100
AcDbArc
50
45.012839698562921
51
116.74798621401699
0
ARC
5
207
100
AcDbEntity
8
0
100
AcDbCircle
10
-122.74500685715307
20
118.78754808029683
30
0
40
3.3245740016301539
210
0
220
-0
230
-1
100
AcDbArc
50
251.38517095145215
51
296.75107198452042
0
LINE
5
208
100
AcDbEntity
8
0
100
AcDbLine
10
123.8062261581421
20
115.63689641952513
30
0
11
125.01831302642822
21
116.04092537562052
31
0
0
ARC
5
209
100
AcDbEntity
8
0
100
AcDbCircle
10
-125.36597289265693
20
115.01444094778378
30
0
40
1.0837608883778118
210
0
220
0
230
-1
100
AcDbArc
50
71.289280774223101
51
135.25244545192467
0
SPLINE
5
210
100
AcDbEntity
8
0
100
AcDbSpline
70
4
71
3
72
8
73
4
74
0
42
0.000000001
43
0.0000000001
44
0.0000000001
40
0
40
0
40
0
40
0
40
1
40
1
40
1
40
1
41
1
41
1
41
1
41
1
10
126.13567659060161
20
115.77739171981811
30
0
10
127.26613690058392
20
114.65169331232707
30
0
10
129.03254030545554
20
114.47653443018595
30
0
10
130.36197304725647
20
115.35841293334961
30
0
0
LINE
5
211
100
AcDbEntity
8
0
100
AcDbLine
10
130.36197304725644
20
115.35841293334961
30
0
11
131.33103332519534
21
116.00387983322143
31
0
0
ARC
5
212
100
AcDbEntity
8
0
100
AcDbCircle
10
-131.93652444960961
20
115.0942106733018
30
0
40
1.0927568266789105
210
0
220
0
230
-1
100
AcDbArc
50
56.351594846484005
51
108.39206097938555
0
LINE
5
213
100
AcDbEntity
8
0
100
AcDbLine
10
132.28130841255188
20
116.13114919662476
30
0
11
133.9349966367086
21
115.5798747062683
31
0
0
ARC
5
214
100
AcDbEntity
8
0
100
AcDbCircle
10
-134.99415154457094
20
118.77139067918023
30
0
40
3.362675025065732
210
0
220
-0
230
-1
100
AcDbArc
50
251.64076109936562
51
288.35923890063441
0
LINE
5
215
100
AcDbEntity
8
0
100
AcDbLine
10
136.05330645243328
20
115.5798747062683
30
0
11
137.70805444717408
21
116.13114919662476
31
0
0
ARC
5
216
100
AcDbEntity
8
0
100
AcDbCircle
10
-138.05127815524361
20
115.08255117648159
30
0
40
1.1033405284086961
210
0
220
0
230
-1
100
AcDbArc
50
71.875860892342203
51
123.38045125535558
0
LINE
5
217
100
AcDbEntity
8
0
100
AcDbLine
10
138.65833155314129
20
116.00387983322143
30
0
11
141.14164250691732
21
114.34847377141317
31
0
0
ARC
5
218
100
AcDbEntity
8
0
100
AcDbCircle
10
-141.75528687189518
20
115.29615232081071
30
0
40
1.1290057748556133
210
0
220
0
230
-1
100
AcDbArc
50
124.45805168703426
51
302.9240155787254
0
LINE
5
219
100
AcDbEntity
8
0
100
AcDbLine
10
142.39408140182496
20
116.22706348101296
30
0
11
139.94728307724
21
117.85852478345235
31
0
0
LINE
5
220
100
AcDbEntity
8
0
100
AcDbLine
10
139.94728307724
20
117.85852478345235
30
0
11
150.34540888468425
21
125.46416519482929
31
0
0
ARC
5
221
100
AcDbEntity
8
0
100
AcDbCircle
10
-154.53982704424823
20
127.08504130106382
30
0
40
4.4967080235481225
210
0
220
-0
230
-1
100
AcDbArc
50
270.05570568185919
51
338.87165039968028
0
ARC
5
222
100
AcDbEntity
8
0
100
AcDbCircle
10
-154.51422626826292
20
127.41242696902214
30
0
40
4.8241382757822624
210
0
220
-0
230
-1
100
AcDbArc
50
256.7457050875916
51
269.74786622495805
0
LINE
5
223
100
AcDbEntity
8
0
100
AcDbLine
10
155.62027263641357
20
122.71679372787476
30
0
11
156.15831715265909
21
120.59888359705607
31
0
0
ARC
5
224
100
AcDbEntity
8
0
100
AcDbCircle
10
-158.88344538319888
20
121.24618420702146
30
0
40
2.8009501874446956
210
0
220
-0
230
-1
100
AcDbArc
50
269.79394724046472
51
346.63813653209598
0
LINE
5
225
100
AcDbEntity
8
0
100
AcDbLine
10
158.89351841608683
20
118.44525213241576
30
0
11
160.39506597518923
21
118.44525213241576
31
0
0
ARC
5
226
100
AcDbEntity
8
0
100
AcDbCircle
10
-160.3944064659197
20
117.88008815631693
30
0
40
0.56516436090071687
210
0
220
0
230
-1
100
AcDbArc
50
90.066860384135538
51
179.9329347316137
0
LINE
5
227
100
AcDbEntity
8
0
100
AcDbLine
10
160.95957043965657
20
117.88074968655904
30
0
11
160.95957043965657
21
116.75187600453695
31
0
0
SPLINE
5
228
100
AcDbEntity
8
0
100
AcDbSpline
70
4
71
3
72
8
73
4
74
0
42
0.000000001
43
0.0000000001
44
0.0000000001
40
0
40
0
40
0
40
0
40
1
40
1
40
1
40
1
41
1
41
1
41
1
41
1
10
160.95957043965657
20
116.75187600453694
30
0
10
160.9611570676168
20
115.19383560816448
30
0
10
162.22378187179567
20
113.93121484120687
30
0
10
163.78182226816816
20
113.92962417602538
30
0
0
ARC
5
229
100
AcDbEntity
8
0
100
AcDbCircle
10
-163.78103064394003
20
113.36432808732992
30
0
40
0.56529664297899895
210
0
220
0
230
-1
100
AcDbArc
50
90.080235293483739
51
179.91976470651838
0
LINE
5
230
100
AcDbEntity
8
0
100
AcDbLine
10
164.34632673263553
20
113.36511971155801
30
0
11
164.3463267326355
21
110.54287192026771
31
0
0
LINE
5
231
100
AcDbEntity
8
0
100
AcDbLine
10
164.3463267326355
20
110.54287192026771
30
0
11
104.51390608151755
21
110.54287192026774
31
0
0
LINE
5
232
100
AcDbEntity
8
0
100
AcDbLine
10
104.51390608151755
20
110.54287192026774
30
0
11
104.51390608151755
21
112.80115219751993
31
0
0
ARC
5
233
100
AcDbEntity
8
0
100
AcDbCircle
10
-129.07426142284692
20
122.12989287440719
30
0
40
38.753448486328132
210
0
220
-0
230
-1
100
AcDbArc
50
202.42284166186886
51
238.48094437586968
0
LINE
5
234
100
AcDbEntity
8
0
100
AcDbLine
10
149.33387098312377
20
89.0938823699951
30
0
11
146.28486862182618
21
89.093882369995114
31
0
0
ARC
5
235
100
AcDbEntity
8
0
100
AcDbCircle
10
-146.28486862182621
20
87.965008687973025
30
0
40
1.128873682022089
210
0
220
0
230
-1
100
AcDbArc
50
89.99999999999855
51
270
0
LINE
5
236
100
AcDbEntity
8
0
100
AcDbLine
10
146.28486862182621
20
86.836135005950936
30
0
11
148.54274921417237
21
86.836135005950922
31
0
0
LINE
5
237
100
AcDbEntity
8
0
100
AcDbLine
10
148.54274921417237
20
86.836135005950922
30
0
11
148.54274921417237
21
85.579860750834129
31
0
0
ARC
5
238
100
AcDbEntity
8
0
100
AcDbCircle
10
-147.54021789684319
20
85.580785730933897
30
0
40
1.0025317440430184
210
0
220
-0
230
-1
100
AcDbArc
50
180.05286362619992
51
269.94713637380119
0
LINE
5
239
100
AcDbEntity
8
0
100
AcDbLine
10
147.54114287694296
20
84.578254413604711
30
0
11
120.19192601839703
21
84.578254413604725
31
0
0
ARC
5
240
100
AcDbEntity
8
0
100
AcDbCircle
10
-120.19338189367559
20
85.580785100537113
30
0
40
1.0025317440430199
210
0
220
-0
230
-1
100
AcDbArc
50
270.08320488480672
51
359.9471724016891
0
LINE
5
241
100
AcDbEntity
8
0
100
AcDbLine
10
119.19085057576498
20
85.579860750834129
30
0
11
119.19085057576497
21
86.836135005950922
31
0
0
LINE
5
242
100
AcDbEntity
8
0
100
AcDbLine
10
119.19085057576497
20
86.836135005950922
30
0
11
132.7378616174062
21
86.836135005950922
31
0
0
SPLINE
5
243
100
AcDbEntity
8
0
100
AcDbSpline
70
4
71
3
72
8
73
4
74
0
42
0.000000001
43
0.0000000001
44
0.0000000001
40
0
40
0
40
0
40
0
40
1
40
1
40
1
40
1
41
1
41
1
41
1
41
1
10
132.7378616174062
20
86.836135005950922
30
0
10
133.36136805216472
20
86.836135005950922
30
0
10
133.86673529942831
20
87.3415022532145
30
0
10
133.86673529942831
20
87.965006669362381
30
0
0
SPLINE
5
244
100
AcDbEntity
8
0
100
AcDbSpline
70
4
71
3
72
8
73
4
74
0
42
0.000000001
43
0.0000000001
44
0.0000000001
40
0
40
0
40
0
40
0
40
1
40
1
40
1
40
1
41
1
41
1
41
1
41
1
10
133.86673529942831
20
87.965006669362381
30
0
10
133.86673529942831
20
88.588511085510248
30
0
10
133.36136805216472
20
89.093878332773841
30
0
10
132.7378616174062
20
89.093878332773841
30
0
0
LINE
5
245
100
AcDbEntity
8
0
100
AcDbLine
10
132.7378616174062
20
89.093878332773841
30
0
11
118.39800491333007
21
89.093878332773841
31
0
0
ARC
5
246
100
AcDbEntity
8
0
100
AcDbCircle
10
-138.61189491483444
20
122.08901425285811
30
0
40
38.694706916809103
210
0
220
-0
230
-1
100
AcDbArc
50
301.49298635156111
51
337.61203966935642
0
LINE
5
247
100
AcDbEntity
8
0
100
AcDbLine
10
102.83375942309698
20
107.35112552642821
30
0
11
102.45116230845453
21
108.28552424112955
31
0
0
LINE
5
248
100
AcDbEntity
8
0
100
AcDbLine
10
102.45116230845453
20
108.28552424112955
30
0
11
165.28137947718304
21
108.28552424112955
31
0
0
LINE
5
249
100
AcDbEntity
8
0
100
AcDbLine
10
165.28137947718304
20
108.28552424112955
30
0
11
164.89771830240886
21
107.3478190422058
31
0
0
LWPOLYLINE
5
250
100
AcDbEntity
8
0
100
AcDbPolyline
90
6
70
1
43
0.0
10
150.24049361546835
20
92.635026041666663
42
-0.1324520281257347
10
149.67546027501425
20
92.482887395222974
42
-0.75334845283727581
10
149.07351865768433
20
94.567062505086241
10
149.0778828938802
20
94.569840113321888
42
0.14527828637965129
10
158.7933670613846
20
105.34090422036472
42
0.9999999925494194
10
160.87040033340455
20
104.45664377212523
42
-0.1451623810960056
0
SPLINE
5
251
100
AcDbEntity
8
0
100
AcDbSpline
70
4
71
3
72
8
73
4
74
0
42
0.000000001
43
0.0000000001
44
0.0000000001
40
0
40
0
40
0
40
0
40
1
40
1
40
1
40
1
41
1
41
1
41
1
41
1
10
358.78950490951536
20
270
30
0
10
356.87233349482221
20
270
30
0
10
355.18641007741292
20
269.22000834544497
30
0
10
353.86666666666667
20
267.73463742732997
30
0
0
SPLINE
5
252
100
AcDbEntity
8
0
100
AcDbSpline
70
4
71
3
72
8
73
4
74
0
42
0.000000001
43
0.0000000001
44
0.0000000001
40
0
40
0
40
0
40
0
40
1
40
1
40
1
40
1
41
1
41
1
41
1
41
1
10
353.86666666666667
20
267.73463742732997
30
0
10
352.54692527453102
20
269.22000834544497
30
0
10
350.86099983851113
20
270
30
0
10
348.94382842381793
20
270
30
0
0
SPLINE
5
253
100
AcDbEntity
8
0
100
AcDbSpline
70
4
71
3
72
8
73
4
74
0
42
0.000000001
43
0.0000000001
44
0.0000000001
40
0
40
0
40
0
40
0
40
1
40
1
40
1
40
1
41
1
41
1
41
1
41
1
10
348.94382842381793
20
270
30
0
10
345.07085746129354
20
270
30
0
10
342.03661518096919
20
266.78107906977334
30
0
10
342.03661518096919
20
262.67157084544499
30
0
0
SPLINE
5
254
100
AcDbEntity
8
0
100
AcDbSpline
70
4
71
3
72
8
73
4
74
0
42
0.000000001
43
0.0000000001
44
0.0000000001
40
0
40
0
40
0
40
0
40
1
40
1
40
1
40
1
41
1
41
1
41
1
41
1
10
342.03661518096919
20
262.67157084544499
30
0
10
342.03661518096919
20
258.35833333333335
30
0
10
345.39047417640688
20
255.52782135009764
30
0
10
350.03232383728027
20
251.60987170537311
30
0
0
SPLINE
5
255
100
AcDbEntity
8
0
100
AcDbSpline
70
4
71
3
72
8
73
4
74
0
42
0.000000001
43
0.0000000001
44
0.0000000001
40
0
40
0
40
0
40
0
40
1
40
1
40
1
40
1
41
1
41
1
41
1
41
1
10
350.03232383728027
20
251.60987170537311
30
0
10
350.84194819132483
20
250.92671734491984
30
0
10
351.67961912155147
20
250.21975145339965
30
0
10
352.56703265508014
20
249.45087073644004
30
0
0
SPLINE
5
256
100
AcDbEntity
8
0
100
AcDbSpline
70
4
71
3
72
8
73
4
74
0
42
0.000000001
43
0.0000000001
44
0.0000000001
40
0
40
0
40
0
40
0
40
1
40
1
40
1
40
1
41
1
41
1
41
1
41
1
10
352.56703265508014
20
249.45087073644004
30
0
10
352.94009612401328
20
249.12702099482217
30
0
10
353.40311695734664
20
248.96562499999999
30
0
10
353.86666666666667
20
248.96562499999999
30
0
0
SPLINE
5
257
100
AcDbEntity
8
0
100
AcDbSpline
70
4
71
3
72
8
73
4
74
0
42
0.000000001
43
0.0000000001
44
0.0000000001
40
0
40
0
40
0
40
0
40
1
40
1
40
1
40
1
41
1
41
1
41
1
41
1
10
353.86666666666667
20
248.96562499999999
30
0
10
354.33021637598671
20
248.96562499999999
30
0
10
354.79323720932007
20
249.12702099482217
30
0
10
355.16630067825315
20
249.45034186045331
30
0
0
SPLINE
5
258
100
AcDbEntity
8
0
100
AcDbSpline
70
4
71
3
72
8
73
4
74
0
42
0.000000001
43
0.0000000001
44
0.0000000001
40
0
40
0
40
0
40
0
40
1
40
1
40
1
40
1
41
1
41
1
41
1
41
1
10
355.16630067825315
20
249.45034186045331
30
0
10
356.05371421178182
20
250.21974943478904
30
0
10
356.89138514200852
20
250.92671734491984
30
0
10
357.70100949605308
20
251.61040058135984
30
0
0
SPLINE
5
259
100
AcDbEntity
8
0
100
AcDbSpline
70
4
71
3
72
8
73
4
74
0
42
0.000000001
43
0.0000000001
44
0.0000000001
40
0
40
0
40
0
40
0
40
1
40
1
40
1
40
1
41
1
41
1
41
1
41
1
10
357.70100949605308
20
251.61040058135984
30
0
10
362.00525258382163
20
255.24312962690988
30
0
10
365.6967181523641
20
258.20011261304222
30
0
10
365.6967181523641
20
262.67157135009762
30
0
0
SPLINE
5
260
100
AcDbEntity
8
0
100
AcDbSpline
70
4
71
3
72
8
73
4
74
0
42
0.000000001
43
0.0000000001
44
0.0000000001
40
0
40
0
40
0
40
0
40
1
40
1
40
1
40
1
41
1
41
1
41
1
41
1
10
365.6967181523641
20
262.67157135009762
30
0
10
365.6967181523641
20
266.78107906977334
30
0
10
362.66247587203975
20
270
30
0
10
358.78950490951536
20
270
30
0
0
SPLINE
5
261
100
AcDbEntity
8
0
100
AcDbSpline
70
4
71
3
72
8
73
4
74
0
42
0.000000001
43
0.0000000001
44
0.0000000001
40
0
40
0
40
0
40
0
40
1
40
1
40
1
40
1
41
1
41
1
41
1
41
1
10
355.14143139521281
20
254.64358309110003
30
0
10
354.72497587203981
20
254.29168677330017
30
0
10
354.30164496103919
20
253.93449967702227
30
0
10
353.86613980929053
20
253.56408260663352
30
0
0
ARC
5
262
100
AcDbEntity
8
0
100
AcDbCircle
10
-77.420012845783475
20
-71.779092170520897
30
0
40
426.93166020711266
210
0
220
0
230
-1
100
AcDbArc
50
130.13073176539373
51
130.35476389709925
0
SPLINE
5
263
100
AcDbEntity
8
0
100
AcDbSpline
70
4
71
3
72
8
73
4
74
0
42
0.000000001
43
0.0000000001
44
0.0000000001
40
0
40
0
40
0
40
0
40
1
40
1
40
1
40
1
41
1
41
1
41
1
41
1
10
352.59190597534177
20
254.6425243298213
30
0
10
348.14373191197717
20
258.39696146647134
30
0
10
346.00536921819048
20
260.30672458012896
30
0
10
346.00536921819048
20
262.6715703407923
30
0
0
SPLINE
5
264
100
AcDbEntity
8
0
100
AcDbSpline
70
4
71
3
72
8
73
4
74
0
42
0.000000001
43
0.0000000001
44
0.0000000001
40
0
40
0
40
0
40
0
40
1
40
1
40
1
40
1
41
1
41
1
41
1
41
1
10
346.00536921819048
20
262.6715703407923
30
0
10
346.00536921819048
20
264.34109103282293
30
0
10
347.01501971880595
20
266.03124949534737
30
0
10
348.94383246103922
20
266.03124949534737
30
0
0
SPLINE
5
265
100
AcDbEntity
8
0
100
AcDbSpline
70
4
71
3
72
8
73
4
74
0
42
0.000000001
43
0.0000000001
44
0.0000000001
40
0
40
0
40
0
40
0
40
1
40
1
40
1
40
1
41
1
41
1
41
1
41
1
10
348.94383246103922
20
266.03124949534737
30
0
10
351.07478685379027
20
266.03124949534737
30
0
10
351.89869893391926
20
263.40499517122902
30
0
10
351.95584983825682
20
263.21396597226459
30
0
0
ARC
5
266
100
AcDbEntity
8
0
100
AcDbCircle
10
-353.86729466498508
20
263.71455797010702
30
0
40
1.9759083161751541
210
0
220
-0
230
-1
100
AcDbArc
50
270.01821018389393
51
345.32429423711358
0
ARC
5
267
100
AcDbEntity
8
0
100
AcDbCircle
10
-353.86604257372915
20
263.71455797134439
30
0
40
1.9759083161751565
210
0
220
-0
230
-1
100
AcDbArc
50
194.675690672954
51
269.98190306116794
0
SPLINE
5
268
100
AcDbEntity
8
0
100
AcDbSpline
70
4
71
3
72
8
73
4
74
0
42
0.000000001
43
0.0000000001
44
0.0000000001
40
0
40
0
40
0
40
0
40
1
40
1
40
1
40
1
41
1
41
1
41
1
41
1
10
355.77748753229776
20
263.21396647691728
30
0
10
355.83463843663537
20
263.40499567588171
30
0
10
356.65855051676431
20
266.03124974767366
30
0
10
358.78950490951536
20
266.03124974767366
30
0
0
SPLINE
5
269
100
AcDbEntity
8
0
100
AcDbSpline
70
4
71
3
72
8
73
4
74
0
42
0.000000001
43
0.0000000001
44
0.0000000001
40
0
40
0
40
0
40
0
40
1
40
1
40
1
40
1
41
1
41
1
41
1
41
1
10
358.78950490951536
20
266.03124974767366
30
0
10
360.71831563313799
20
266.03124974767366
30
0
10
361.7279681523641
20
264.34109153747562
30
0
10
361.7279681523641
20
262.6715703407923
30
0
0
SPLINE
5
270
100
AcDbEntity
8
0
100
AcDbSpline
70
4
71
3
72
8
73
4
74
0
42
0.000000001
43
0.0000000001
44
0.0000000001
40
0
40
0
40
0
40
0
40
1
40
1
40
1
40
1
41
1
41
1
41
1
41
1
10
361.7279681523641
20
262.6715703407923
30
0
10
361.7279681523641
20
260.20777026812237
30
0
10
359.22553691864016
20
258.09004584948224
30
0
10
355.14143139521281
20
254.64305421511335
30
0
0
LINE
5
271
100
AcDbEntity
8
0
100
AcDbLine
10
355.14143139521281
20
254.64305421511335
30
0
11
355.14143139521281
21
254.64358309110003
31
0
0
ARC
5
272
100
AcDbEntity
8
0
100
AcDbCircle
10
-385.74895833333335
20
212.18854166666665
30
0
40
1.9843750000000071
210
0
220
0
230
-1
100
AcDbArc
50
90
51
180
0
LINE
5
273
100
AcDbEntity
8
0
100
AcDbLine
10
387.73333333333335
20
212.18854166666665
30
0
11
387.73333333333335
21
204.25104166666668
31
0
0
ARC
5
274
100
AcDbEntity
8
0
100
AcDbCircle
10
-385.74895833333335
20
204.25104166666665
30
0
40
1.9843749999999716
210
0
220
0
230
-1
100
AcDbArc
50
-180
51
0
0
LINE
5
275
100
AcDbEntity
8
0
100
AcDbLine
10
383.76458333333341
20
204.25104166666665
30
0
11
383.76458333333335
21
206.23541666666665
31
0
0
LINE
5
276
100
AcDbEntity
8
0
100
AcDbLine
10
383.76458333333335
20
206.23541666666665
30
0
11
379.79583333333329
21
206.23541666666665
31
0
0
LINE
5
277
100
AcDbEntity
8
0
100
AcDbLine
10
379.79583333333329
20
206.23541666666665
30
0
11
379.79583333333335
21
204.25104166666665
31
0
0
ARC
5
278
100
AcDbEntity
8
0
100
AcDbCircle
10
-377.81145833333335
20
204.25104166666665
30
0
40
1.9843750000000426
210
0
220
0
230
-1
100
AcDbArc
50
-180
51
0
0
LINE
5
279
100
AcDbEntity
8
0
100
AcDbLine
10
375.82708333333335
20
204.25104166666665
30
0
11
375.82708333333335
21
206.23541666666665
31
0
0
LINE
5
280
100
AcDbEntity
8
0
100
AcDbLine
10
375.82708333333335
20
206.23541666666665
30
0
11
371.72604166666673
21
206.23541666666665
31
0
0
LINE
5
281
100
AcDbEntity
8
0
100
AcDbLine
10
371.72604166666673
20
206.23541666666665
30
0
11
371.72604166666667
21
204.25104166666665
31
0
0
ARC
5
282
100
AcDbEntity
8
0
100
AcDbCircle
10
-369.74166666666667
20
204.25104166666665
30
0
40
1.9843749999999716
210
0
220
0
230
-1
100
AcDbArc
50
180
51
270
0
LINE
5
283
100
AcDbEntity
8
0
100
AcDbLine
10
369.74166666666667
20
202.26666666666662
30
0
11
337.99166666666673
21
202.26666666666665
31
0
0
ARC
5
284
100
AcDbEntity
8
0
100
AcDbCircle
10
-337.99166666666667
20
204.25104166666665
30
0
40
1.9843749999999716
210
0
220
-0
230
-1
100
AcDbArc
50
-90.000000000001634
51
0
0
LINE
5
285
100
AcDbEntity
8
0
100
AcDbLine
10
336.00729166666667
20
204.25104166666665
30
0
11
336.00729166666667
21
206.23541666666665
31
0
0
LINE
5
286
100
AcDbEntity
8
0
100
AcDbLine
10
336.00729166666667
20
206.23541666666665
30
0
11
331.90625
21
206.23541666666665
31
0
0
LINE
5
287
100
AcDbEntity
8
0
100
AcDbLine
10
331.90625
20
206.23541666666665
30
0
11
331.90625
21
204.25104166666665
31
0
0
ARC
5
288
100
AcDbEntity
8
0
100
AcDbCircle
10
-329.921875
20
204.25104166666665
30
0
40
1.9843749999999716
210
0
220
0
230
-1
100
AcDbArc
50
-180
51
0
0
LINE
5
289
100
AcDbEntity
8
0
100
AcDbLine
10
327.9375
20
204.25104166666665
30
0
11
327.9375
21
206.23541666666665
31
0
0
LINE
5
290
100
AcDbEntity
8
0
100
AcDbLine
10
327.9375
20
206.23541666666665
30
0
11
323.96875
21
206.23541666666665
31
0
0
LINE
5
291
100
AcDbEntity
8
0
100
AcDbLine
10
323.96875
20
206.23541666666665
30
0
11
323.96875
21
204.25104166666665
31
0
0
ARC
5
292
100
AcDbEntity
8
0
100
AcDbCircle
10
-321.984375
20
204.25104166666665
30
0
40
1.9843750000000426
210
0
220
0
230
-1
100
AcDbArc
50
-180
51
0
0
LINE
5
293
100
AcDbEntity
8
0
100
AcDbLine
10
319.99999999999994
20
204.25104166666665
30
0
11
320
21
212.18854166666662
31
0
0
ARC
5
294
100
AcDbEntity
8
0
100
AcDbCircle
10
-321.984375
20
212.18854166666665
30
0
40
1.9843749999999716
210
-0
220
0
230
-1
100
AcDbArc
50
0
51
180
0
LINE
5
295
100
AcDbEntity
8
0
100
AcDbLine
10
323.96874999999994
20
212.18854166666665
30
0
11
323.96875
21
210.20416666666665
31
0
0
LINE
5
296
100
AcDbEntity
8
0
100
AcDbLine
10
323.96875
20
210.20416666666665
30
0
11
327.9375
21
210.20416666666665
31
0
0
LINE
5
297
100
AcDbEntity
8
0
100
AcDbLine
10
327.9375
20
210.20416666666665
30
0
11
327.9375
21
212.18854166666665
31
0
0
ARC
5
298
100
AcDbEntity
8
0
100
AcDbCircle
10
-329.921875
20
212.18854166666665
30
0
40
1.9843749999999716
210
0
220
0
230
-1
100
AcDbArc
50
0
51
180
0
LINE
5
299
100
AcDbEntity
8
0
100
AcDbLine
10
331.90625
20
212.18854166666665
30
0
11
331.90625
21
210.20416666666665
31
0
0
LINE
5
300
100
AcDbEntity
8
0
100
AcDbLine
10
331.90625
20
210.20416666666665
30
0
11
336.00729166666667
21
210.20416666666665
31
0
0
LINE
5
301
100
AcDbEntity
8
0
100
AcDbLine
10
336.00729166666667
20
210.20416666666665
30
0
11
336.00729166666667
21
218.61103804906207
31
0
0
SPLINE
5
302
100
AcDbEntity
8
0
100
AcDbSpline
70
4
71
3
72
8
73
4
74
0
42
0.000000001
43
0.0000000001
44
0.0000000001
40
0
40
0
40
0
40
0
40
1
40
1
40
1
40
1
41
1
41
1
41
1
41
1
10
336.00729166666667
20
218.61103804906207
30
0
10
333.75198278427121
20
217.81199525197343
30
0
10
331.04212114016212
20
218.42424389521281
30
0
10
329.37471645673111
20
220.509157816569
30
0
0
ARC
5
303
100
AcDbEntity
8
0
100
AcDbCircle
10
-334.01443490536155
20
224.2281435864588
30
0
40
5.9462460796037773
210
0
220
-0
230
-1
100
AcDbArc
50
-38.71406503864354
51
51.416724164377953
0
LINE
5
304
100
AcDbEntity
8
0
100
AcDbLine
10
330.30604991118116
20
228.87633927663163
30
0
11
350.14239060084026
21
244.87728039423627
31
0
0
SPLINE
5
305
100
AcDbEntity
8
0
100
AcDbSpline
70
4
71
3
72
8
73
4
74
0
42
0.000000001
43
0.0000000001
44
0.0000000001
40
0
40
0
40
0
40
0
40
1
40
1
40
1
40
1
41
1
41
1
41
1
41
1
10
350.14239060084026
20
244.87728039423627
30
0
10
352.33790419896445
20
246.63305581410725
30
0
10
355.3954291343689
20
246.63305581410725
30
0
10
357.58459218343097
20
244.88257117271422
30
0
0
LINE
5
306
100
AcDbEntity
8
0
100
AcDbLine
10
357.58459218343097
20
244.88257117271422
30
0
11
377.43469273249309
21
228.86998872756959
31
0
0
SPLINE
5
307
100
AcDbEntity
8
0
100
AcDbSpline
70
4
71
3
72
8
73
4
74
0
42
0.000000001
43
0.0000000001
44
0.0000000001
40
0
40
0
40
0
40
0
40
1
40
1
40
1
40
1
41
1
41
1
41
1
41
1
10
377.43469273249309
20
228.86998872756959
30
0
10
379.99215532938643
20
226.82793394724527
30
0
10
380.41866353352867
20
223.08143297831214
30
0
10
378.35809001922604
20
220.50862490336101
30
0
0
ARC
5
308
100
AcDbEntity
8
0
100
AcDbCircle
10
-373.71595440174906
20
224.21018081261741
30
0
40
5.9372501413026892
210
0
220
-0
230
-1
100
AcDbArc
50
218.56823171965058
51
289.58206229032527
0
LINE
5
309
100
AcDbEntity
8
0
100
AcDbLine
10
371.72604570388791
20
218.61632680892944
30
0
11
371.72604570388791
21
210.20416666666671
31
0
0
LINE
5
310
100
AcDbEntity
8
0
100
AcDbLine
10
371.72604570388791
20
210.20416666666671
30
0
11
375.82708737055452
21
210.20416666666665
31
0
0
LINE
5
311
100
AcDbEntity
8
0
100
AcDbLine
10
375.82708737055452
20
210.20416666666665
30
0
11
375.82708737055464
21
212.18854166666665
31
0
0
ARC
5
312
100
AcDbEntity
8
0
100
AcDbCircle
10
-377.81146237055458
20
212.18854166666665
30
0
40
1.9843749999999716
210
0
220
0
230
-1
100
AcDbArc
50
0
51
180
0
LINE
5
313
100
AcDbEntity
8
0
100
AcDbLine
10
379.79583737055458
20
212.18854166666665
30
0
11
379.79583737055464
21
210.20416666666665
31
0
0
LINE
5
314
100
AcDbEntity
8
0
100
AcDbLine
10
379.79583737055464
20
210.20416666666665
30
0
11
383.76458737055464
21
210.20416666666665
31
0
0
LINE
5
315
100
AcDbEntity
8
0
100
AcDbLine
10
383.76458737055464
20
210.20416666666665
30
0
11
383.76458737055458
21
212.18854166666665
31
0
0
ARC
5
316
100
AcDbEntity
8
0
100
AcDbCircle
10
-385.74895833333335
20
212.18854166666665
30
0
40
1.9843709627787831
210
0
220
0
230
-1
100
AcDbArc
50
0
51
90
0
LWPOLYLINE
5
317
100
AcDbEntity
8
0
100
AcDbPolyline
90
4
70
1
43
0.0
10
355.85104166666667
20
206.23541666666665
10
355.85104166666667
20
214.17291666666665
10
351.88229166666667
20
214.17291666666665
10
351.88229166666667
20
206.23541666666665
0
LWPOLYLINE
5
318
100
AcDbEntity
8
0
100
AcDbPolyline
90
11
70
1
43
0.0
10
367.75729166666667
20
206.23541666666665
10
367.75729166666667
20
221.36640926996864
10
353.86666666666662
20
232.47785151799519
10
339.97604166666667
20
221.36640926996864
10
339.97604166666667
20
206.23541666666665
10
347.91354166666673
20
206.23541666666665
10
347.91354166666667
20
216.15729166666665
42
-0.41421356237310031
10
349.89791666666667
20
218.14166666666668
10
357.83541666666673
20
218.14166666666665
42
-0.41421356237308454
10
359.81979166666662
20
216.15729166666668
10
359.81979166666667
20
206.23541666666668
0
LWPOLYLINE
5
319
100
AcDbEntity
8
0
100
AcDbPolyline
90
11
70
1
43
0.0
10
355.1059765179952
20
236.56830759048461
10
372.47163972854617
20
222.67768259048455
42
0.41475409391747803
10
375.2582307815552
20
222.98671573003131
42
0.41547260880327802
10
374.95078426996872
20
225.77542228698732
10
355.09909709294641
20
241.78853764533997
42
0.35230661868982327
10
352.62735883394885
20
241.78324686686196
10
332.78995837370553
20
225.78124396006262
42
0.41632364706400321
10
332.47245817184449
20
222.98883123397826
42
0.41504813992775641
10
335.26010798613231
20
222.67662483851115
10
352.62682793935141
20
236.56830759048461
42
-0.35066460295509222
10
355.10544360478718
20
236.56830759048458
0
ARC
5
320
100
AcDbEntity
8
0
100
AcDbCircle
10
-118.27869993224752
20
241.14250281631996
30
0
40
1.4112875292698523
210
0
220
-0
230
-1
100
AcDbArc
50
-89.896828405290179
51
81.02442350254897
0
SPLINE
5
321
100
AcDbEntity
8
0
100
AcDbSpline
70
4
71
3
72
8
73
4
74
0
42
0.000000001
43
0.0000000001
44
0.0000000001
40
0
40
0
40
0
40
0
40
1
40
1
40
1
40
1
41
1
41
1
41
1
41
1
10
118.05852012634278
20
242.53650903701782
30
0
10
118.06733741760254
20
242.53791802724203
30
0
10
118.11143194834392
20
242.54638408025104
30
0
10
118.17069028218589
20
242.55872990290325
30
0
0
SPLINE
5
322
100
AcDbEntity
8
0
100
AcDbSpline
70
4
71
3
72
8
73
4
74
0
42
0.000000001
43
0.0000000001
44
0.0000000001
40
0
40
0
40
0
40
0
40
1
40
1
40
1
40
1
41
1
41
1
41
1
41
1
10
118.17069028218589
20
242.55872990290325
30
0
10
115.72413015365601
20
248.16119801203411
30
0
10
109.9943240483602
20
253.30722999572754
30
0
10
97.188326803843182
20
253.30722999572754
30
0
0
SPLINE
5
323
100
AcDbEntity
8
0
100
AcDbSpline
70
4
71
3
72
8
73
4
74
0
42
0.000000001
43
0.0000000001
44
0.0000000001
40
0
40
0
40
0
40
0
40
1
40
1
40
1
40
1
41
1
41
1
41
1
41
1
10
97.188326803843182
20
253.30722999572754
30
0
10
93.260990619659424
20
253.30722999572754
30
0
10
88.815133921305346
20
252.48606726328532
30
0
10
84.257815599441528
20
250.92380797068276
30
0
0
SPLINE
5
324
100
AcDbEntity
8
0
100
AcDbSpline
70
4
71
3
72
8
73
4
74
0
42
0.000000001
43
0.0000000001
44
0.0000000001
40
0
40
0
40
0
40
0
40
1
40
1
40
1
40
1
41
1
41
1
41
1
41
1
10
84.257815599441528
20
250.92380797068276
30
0
10
82.496262915929165
20
254.65220200220742
30
0
10
79.107903846104946
20
256.81692976951598
30
0
10
75.804200259844464
20
256.17354405721028
30
0
0
SPLINE
5
325
100
AcDbEntity
8
0
100
AcDbSpline
70
4
71
3
72
8
73
4
74
0
42
0.000000001
43
0.0000000001
44
0.0000000001
40
0
40
0
40
0
40
0
40
1
40
1
40
1
40
1
41
1
41
1
41
1
41
1
10
75.804200259844464
20
256.17354405721028
30
0
10
73.709667658805841
20
255.76684246063229
30
0
10
71.974923133850098
20
254.32698364257814
30
0
10
70.920249541600541
20
252.11710561116536
30
0
0
SPLINE
5
326
100
AcDbEntity
8
0
100
AcDbSpline
70
4
71
3
72
8
73
4
74
0
42
0.000000001
43
0.0000000001
44
0.0000000001
40
0
40
0
40
0
40
0
40
1
40
1
40
1
40
1
41
1
41
1
41
1
41
1
10
70.920249541600541
20
252.11710561116536
30
0
10
69.93259483178457
20
250.05149768193561
30
0
10
69.6588742574056
20
247.52874711354571
30
0
10
70.147057072321573
20
245.0126942952474
30
0
0
SPLINE
5
327
100
AcDbEntity
8
0
100
AcDbSpline
70
4
71
3
72
8
73
4
74
0
42
0.000000001
43
0.0000000001
44
0.0000000001
40
0
40
0
40
0
40
0
40
1
40
1
40
1
40
1
41
1
41
1
41
1
41
1
10
70.147057072321573
20
245.0126942952474
30
0
10
70.218308981259668
20
244.64902544021606
30
0
10
70.304376482963562
20
244.28923635482789
30
0
10
70.404553063710523
20
243.9365043322245
30
0
0
SPLINE
5
328
100
AcDbEntity
8
0
100
AcDbSpline
70
4
71
3
72
8
73
4
74
0
42
0.000000001
43
0.0000000001
44
0.0000000001
40
0
40
0
40
0
40
0
40
1
40
1
40
1
40
1
41
1
41
1
41
1
41
1
10
70.404553063710523
20
243.9365043322245
30
0
10
64.245470229784644
20
239.68183428446451
30
0
10
60.599967731535436
20
235.17178173065184
30
0
10
60.599967731535436
20
231.76014000574747
30
0
0
SPLINE
5
329
100
AcDbEntity
8
0
100
AcDbSpline
70
4
71
3
72
8
73
4
74
0
42
0.000000001
43
0.0000000001
44
0.0000000001
40
0
40
0
40
0
40
0
40
1
40
1
40
1
40
1
41
1
41
1
41
1
41
1
10
60.599967731535436
20
231.76014000574747
30
0
10
60.599967731535436
20
223.41728280385331
30
0
10
75.336122806866967
20
222.26666666666665
30
0
10
91.260285059611007
20
222.26666666666665
30
0
0
SPLINE
5
330
100
AcDbEntity
8
0
100
AcDbSpline
70
4
71
3
72
8
73
4
74
0
42
0.000000001
43
0.0000000001
44
0.0000000001
40
0
40
0
40
0
40
0
40
1
40
1
40
1
40
1
41
1
41
1
41
1
41
1
10
91.260285059611007
20
222.26666666666665
30
0
10
106.60631621678672
20
222.26666666666665
30
0
10
119.85922578175862
20
222.26666666666665
30
0
10
119.85922578175862
20
233.81763715744017
30
0
0
SPLINE
5
331
100
AcDbEntity
8
0
100
AcDbSpline
70
4
71
3
72
8
73
4
74
0
42
0.000000001
43
0.0000000001
44
0.0000000001
40
0
40
0
40
0
40
0
40
1
40
1
40
1
40
1
41
1
41
1
41
1
41
1
10
119.85922578175862
20
233.81763715744017
30
0
10
119.85922578175862
20
235.62116483052569
30
0
10
119.6772157351176
20
237.72663224538167
30
0
10
119.10543216069541
20
239.87336813608806
30
0
0
ARC
5
332
100
AcDbEntity
8
0
100
AcDbCircle
10
-116.96542302752914
20
248.71870586883719
30
0
40
9.1005295832952129
210
0
220
-0
230
-1
100
AcDbArc
50
256.39940810775067
51
260.31824750045848
0
ARC
5
333
100
AcDbEntity
8
0
100
AcDbCircle
10
-118.27463739558986
20
241.21622562984231
30
0
40
1.485008829832092
210
0
220
-0
230
-1
100
AcDbArc
50
261.43082806468868
51
269.94130572724572
0
SPLINE
5
334
100
AcDbEntity
8
0
100
AcDbSpline
70
4
71
3
72
8
73
4
74
0
42
0.000000001
43
0.0000000001
44
0.0000000001
40
0
40
0
40
0
40
0
40
1
40
1
40
1
40
1
41
1
41
1
41
1
41
1
10
73.298380788167321
20
230.95873139699302
30
0
10
70.964342053731286
20
230.95873139699302
30
0
10
69.065576330820718
20
232.85714588165285
30
0
10
69.065576330820718
20
235.19153585433958
30
0
0
SPLINE
5
335
100
AcDbEntity
8
0
100
AcDbSpline
70
4
71
3
72
8
73
4
74
0
42
0.000000001
43
0.0000000001
44
0.0000000001
40
0
40
0
40
0
40
0
40
1
40
1
40
1
40
1
41
1
41
1
41
1
41
1
10
69.065576330820718
20
235.19153585433958
30
0
10
69.065576330820718
20
237.52592582702636
30
0
10
70.964342053731286
20
239.42434031168619
30
0
10
73.298380788167321
20
239.42434031168619
30
0
0
SPLINE
5
336
100
AcDbEntity
8
0
100
AcDbSpline
70
4
71
3
72
8
73
4
74
0
42
0.000000001
43
0.0000000001
44
0.0000000001
40
0
40
0
40
0
40
0
40
1
40
1
40
1
40
1
41
1
41
1
41
1
41
1
10
73.298380788167321
20
239.42434031168619
30
0
10
75.632419522603357
20
239.42434031168619
30
0
10
77.53118524551391
20
237.5252233505249
30
0
10
77.53118524551391
20
235.19153585433958
30
0
0
SPLINE
5
337
100
AcDbEntity
8
0
100
AcDbSpline
70
4
71
3
72
8
73
4
74
0
42
0.000000001
43
0.0000000001
44
0.0000000001
40
0
40
0
40
0
40
0
40
1
40
1
40
1
40
1
41
1
41
1
41
1
41
1
10
77.53118524551391
20
235.19153585433958
30
0
10
77.53118524551391
20
232.85784835815429
30
0
10
75.632419522603357
20
230.95873139699302
30
0
10
73.298380788167321
20
230.95873139699302
30
0
0
SPLINE
5
338
100
AcDbEntity
8
0
100
AcDbSpline
70
4
71
3
72
8
73
4
74
0
42
0.000000001
43
0.0000000001
44
0.0000000001
40
0
40
0
40
0
40
0
40
1
40
1
40
1
40
1
41
1
41
1
41
1
41
1
10
73.298380788167321
20
239.42398503621419
30
0
10
70.964342053731286
20
239.42398503621419
30
0
10
69.065576330820718
20
237.52521931330364
30
0
10
69.065576330820718
20
235.19118057886757
30
0
0
SPLINE
5
339
100
AcDbEntity
8
0
100
AcDbSpline
70
4
71
3
72
8
73
4
74
0
42
0.000000001
43
0.0000000001
44
0.0000000001
40
0
40
0
40
0
40
0
40
1
40
1
40
1
40
1
41
1
41
1
41
1
41
1
10
69.065576330820718
20
235.19118057886757
30
0
10
69.065576330820718
20
232.85714184443154
30
0
10
70.964342053731286
20
230.95837612152098
30
0
10
73.298380788167321
20
230.95837612152098
30
0
0
SPLINE
5
340
100
AcDbEntity
8
0
100
AcDbSpline
70
4
71
3
72
8
73
4
74
0
42
0.000000001
43
0.0000000001
44
0.0000000001
40
0
40
0
40
0
40
0
40
1
40
1
40
1
40
1
41
1
41
1
41
1
41
1
10
73.298380788167321
20
230.95837612152098
30
0
10
75.632419522603357
20
230.95837612152098
30
0
10
77.53118524551391
20
232.85714184443154
30
0
10
77.53118524551391
20
235.19118057886757
30
0
0
SPLINE
5
341
100
AcDbEntity
8
0
100
AcDbSpline
70
4
71
3
72
8
73
4
74
0
42
0.000000001
43
0.0000000001
44
0.0000000001
40
0
40
0
40
0
40
0
40
1
40
1
40
1
40
1
41
1
41
1
41
1
41
1
10
77.53118524551391
20
235.19118057886757
30
0
10
77.53118524551391
20
237.52521931330364
30
0
10
75.632419522603357
20
239.42398503621419
30
0
10
73.298380788167321
20
239.42398503621419
30
0
0
SPLINE
5
342
100
AcDbEntity
8
0
100
AcDbSpline
70
4
71
3
72
8
73
4
74
0
42
0.000000001
43
0.0000000001
44
0.0000000001
40
0
40
0
40
0
40
0
40
1
40
1
40
1
40
1
41
1
41
1
41
1
41
1
10
119.33435875574747
20
263.61551955540972
30
0
10
113.17986119588215
20
270.56649022102357
30
0
10
110.98021348317465
20
276.57954070568087
30
0
10
112.97245299021404
20
281.00529103279115
30
0
0
SPLINE
5
343
100
AcDbEntity
8
0
100
AcDbSpline
70
4
71
3
72
8
73
4
74
0
42
0.000000001
43
0.0000000001
44
0.0000000001
40
0
40
0
40
0
40
0
40
1
40
1
40
1
40
1
41
1
41
1
41
1
41
1
10
112.97245299021404
20
281.00529103279115
30
0
10
114.91248718897502
20
285.31393317778907
30
0
10
120.39467436472576
20
287.17813069820403
30
0
10
122.76292854944867
20
287.17813069820403
30
0
0
ARC
5
344
100
AcDbEntity
8
0
100
AcDbCircle
10
-122.76292854944867
20
288.58906547526522
30
0
40
1.4109347770611436
210
-0
220
-0
230
-1
100
AcDbArc
50
-90
51
90
0
SPLINE
5
345
100
AcDbEntity
8
0
100
AcDbSpline
70
4
71
3
72
8
73
4
74
0
42
0.000000001
43
0.0000000001
44
0.0000000001
40
0
40
0
40
0
40
0
40
1
40
1
40
1
40
1
41
1
41
1
41
1
41
1
10
122.76292854944867
20
290.00000025232634
30
0
10
119.19996369679768
20
290.00000025232634
30
0
10
112.80666853586834
20
287.51040586829185
30
0
10
110.39961261749269
20
282.16402097543084
30
0
0
SPLINE
5
346
100
AcDbEntity
8
0
100
AcDbSpline
70
4
71
3
72
8
73
4
74
0
42
0.000000001
43
0.0000000001
44
0.0000000001
40
0
40
0
40
0
40
0
40
1
40
1
40
1
40
1
41
1
41
1
41
1
41
1
10
110.39961261749269
20
282.16402097543084
30
0
10
108.66839561462402
20
278.31992926597599
30
0
10
108.44687732060751
20
271.65643701553341
30
0
10
117.22218551635743
20
261.7442674954732
30
0
0
SPLINE
5
347
100
AcDbEntity
8
0
100
AcDbSpline
70
4
71
3
72
8
73
4
74
0
42
0.000000001
43
0.0000000001
44
0.0000000001
40
0
40
0
40
0
40
0
40
1
40
1
40
1
40
1
41
1
41
1
41
1
41
1
10
117.22218551635743
20
261.7442674954732
30
0
10
122.87121489842733
20
255.36190512975057
30
0
10
125.21583518981934
20
250.18941723505657
30
0
10
124.00031668345135
20
246.78483257293698
30
0
0
SPLINE
5
348
100
AcDbEntity
8
0
100
AcDbSpline
70
4
71
3
72
8
73
4
74
0
42
0.000000001
43
0.0000000001
44
0.0000000001
40
0
40
0
40
0
40
0
40
1
40
1
40
1
40
1
41
1
41
1
41
1
41
1
10
124.00031668345135
20
246.78483257293698
30
0
10
122.87474342981974
20
243.62927583058675
30
0
10
118.8761543273926
20
242.69911619822182
30
0
10
118.17069028218589
20
242.55872990290325
30
0
0
ARC
5
349
100
AcDbEntity
8
0
100
AcDbCircle
10
-117.53677660905166
20
245.51985592998224
30
0
40
3.0282195913161951
210
0
220
-0
230
-1
100
AcDbArc
50
257.91658996004105
51
260.08560783052911
0
ARC
5
350
100
AcDbEntity
8
0
100
AcDbCircle
10
-118.27685913196923
20
241.14232734410766
30
0
40
1.4115768787697491
210
0
220
-0
230
-1
100
AcDbArc
50
-98.912680158970758
51
81.087318521014424
0
ARC
5
351
100
AcDbEntity
8
0
100
AcDbCircle
10
-116.96746184387976
20
248.71911398500148
30
0
40
9.1005295832951756
210
0
220
-0
230
-1
100
AcDbArc
50
256.4103391625934
51
260.3335378348728
0
SPLINE
5
352
100
AcDbEntity
8
0
100
AcDbSpline
70
4
71
3
72
8
73
4
74
0
42
0.000000001
43
0.0000000001
44
0.0000000001
40
0
40
0
40
0
40
0
40
1
40
1
40
1
40
1
41
1
41
1
41
1
41
1
10
119.10578339894613
20
239.87336813608806
30
0
10
120.73329629898072
20
240.25784886678059
30
0
10
125.15375483830769
20
241.65890595118202
30
0
10
126.65075648625691
20
245.81587120691935
30
0
0
SPLINE
5
353
100
AcDbEntity
8
0
100
AcDbSpline
70
4
71
3
72
8
73
4
74
0
42
0.000000001
43
0.0000000001
44
0.0000000001
40
0
40
0
40
0
40
0
40
1
40
1
40
1
40
1
41
1
41
1
41
1
41
1
10
126.65075648625691
20
245.81587120691935
30
0
10
128.27050984700523
20
250.3132266998291
30
0
10
125.8087818781535
20
256.30158452987672
30
0
10
119.33435471852621
20
263.61516629854839
30
0
0
LINE
5
354
100
AcDbEntity
8
0
100
AcDbLine
10
119.33435471852621
20
263.61516629854839
30
0
11
119.33435875574747
21
263.61551955540972
31
0
0
ENDSEC
0
SECTION
2
OBJECTS
0
DICTIONARY
5
C
100
AcDbDictionary
3
ACAD_GROUP
350
D
3
ACAD_MLINESTYLE
350
17
0
DICTIONARY
5
D
100
AcDbDictionary
0
DICTIONARY
5
1A
330
C
100
AcDbDictionary
0
DICTIONARY
5
17
100
AcDbDictionary
0
ENDSEC
0
EOF
