0
SECTION
2
HEADER
9
$INSUNITS
70
4
9
$ACADVER
1
AC1014
9
$HANDSEED
5
FFFF
0
ENDSEC
0
SECTION
2
TABLES
0
TABLE
2
VPORT
5
8
100
AcDbSymbolTable
0
ENDTAB
0
TABLE
2
LTYPE
5
5
100
AcDbSymbolTable
0
LTYPE
5
14
100
AcDbSymbolTableRecord
100
AcDbLinetypeTableRecord
2
BYBLOCK
70
0
0
LTYPE
5
15
100
AcDbSymbolTableRecord
100
AcDbLinetypeTableRecord
2
BYLAYER
70
0
0
ENDTAB
0
TABLE
2
LAYER
5
2
100
AcDbSymbolTable
70
2
0
LAYER
5
50
100
AcDbSymbolTableRecord
100
AcDbLayerTableRecord
2
0
70
0
6
CONTINUOUS
0
ENDTAB
0
TABLE
2
STYLE
5
3
100
AcDbSymbolTable
70
1
0
STYLE
5
11
100
AcDbSymbolTableRecord
100
AcDbTextStyleTableRecord
2
STANDARD
70
0
0
ENDTAB
0
TABLE
2
VIEW
5
6
100
AcDbSymbolTable
70
0
0
ENDTAB
0
TABLE
2
UCS
5
7
100
AcDbSymbolTable
70
0
0
ENDTAB
0
TABLE
2
APPID
5
9
100
AcDbSymbolTable
70
2
0
APPID
5
12
100
AcDbSymbolTableRecord
100
AcDbRegAppTableRecord
2
ACAD
70
0
0
ENDTAB
0
TABLE
2
DIMSTYLE
5
A
100
AcDbSymbolTable
70
1
0
ENDTAB
0
TABLE
2
BLOCK_RECORD
5
1
100
AcDbSymbolTable
70
1
0
BLOCK_RECORD
5
1F
100
AcDbSymbolTableRecord
100
AcDbBlockTableRecord
2
*MODEL_SPACE
0
BLOCK_RECORD
5
1B
100
AcDbSymbolTableRecord
100
AcDbBlockTableRecord
2
*PAPER_SPACE
0
ENDTAB
0
ENDSEC
0
SECTION
2
BLOCKS
0
BLOCK
5
20
100
AcDbEntity
100
AcDbBlockBegin
2
*MODEL_SPACE
0
ENDBLK
5
21
100
AcDbEntity
100
AcDbBlockEnd
0
BLOCK
5
1C
100
AcDbEntity
100
AcDbBlockBegin
2
*PAPER_SPACE
0
ENDBLK
5
1D
100
AcDbEntity
100
AcDbBlockEnd
0
ENDSEC
0
SECTION
2
ENTITIES
0
LWPOLYLINE
5
100
100
AcDbEntity
8
0
100
AcDbPolyline
90
131
70
1
43
0.0
10
537.00000889599335
20
137.99999999999997
10
552.00000889599335
20
137.99999999999997
10
552.00000889599335
20
149.00000000000006
10
567.00000889599335
20
149.00000000000006
10
567.00000889599335
20
137.99999999999997
10
582.00000889599335
20
137.99999999999997
10
582.00000889599335
20
149.00000000000006
10
597.00000889599335
20
149.00000000000006
10
597.00000889599335
20
154.00000000000006
10
582.00000889599335
20
154.00000000000006
10
582.00000889599335
20
169.00000000000006
10
597.00000889599335
20
169.00000000000006
10
597.00000889599335
20
174.00000000000006
10
582.00000889599335
20
174.00000000000006
10
582.00000889599335
20
178.79000000000005
10
574.50001889599332
20
185.00012999999996
10
566.9999888959934
20
178.79000000000005
10
567.00000889599335
20
174.00000000000006
10
560.95119782367055
20
174.04332872516989
10
560.47681084847579
20
174.85700468910011
10
559.28580251955884
20
176.20271280539498
10
561.04020252704754
20
176.59129779740923
10
562.76434553503771
20
177.35015322979478
10
564.25715548263793
20
178.40497688558884
10
565.49461537014031
20
179.70864180133731
10
566.45271017650782
20
181.21401903728787
10
567.1074238492306
20
182.8739816815534
10
567.43473928023809
20
184.64140282558162
10
567.41064230195013
20
186.46915451411445
10
567.01111676495623
20
188.31011060241025
10
566.25228907008864
20
190.03425842923704
10
565.19747793070496
20
191.5270724118092
10
563.89381872078536
20
192.76453820375707
10
562.38844392773524
20
193.72264475040609
10
560.72848704637443
20
194.37737874054596
10
558.96108059597145
20
194.70472756150974
10
557.13335935025475
20
194.68067826314595
10
555.29245709182658
20
194.28121701968223
10
553.64422859425849
20
193.56414606892869
10
553.81673325858526
20
195.3528346242139
10
553.62779895134804
20
197.22685544204211
10
553.08593671271819
20
198.97232667843809
10
552.22859251630973
20
200.55167535738713
10
551.09316938654877
20
201.9278114609952
10
549.71707074271512
20
203.06319549484101
10
548.13773133554355
20
203.9204417291046
10
546.39257662238526
20
204.46218138998717
10
544.52170491728782
20
204.65079249853133
10
544.52117942567293
20
204.65052503822386
10
542.64084902415948
20
204.46097330472668
10
540.89610775058156
20
203.91936259087075
10
539.31707459291749
20
203.06227850535663
10
537.94118880769156
20
201.92706859866939
10
536.80589918433395
20
200.5511051555014
10
535.94864354047797
20
198.97178308021103
10
535.4068502008364
20
197.22650421468387
10
535.21793458210266
20
195.35267491918893
10
535.39043313996024
20
193.56388137567265
10
533.74180445332013
20
194.28116063430559
10
531.90090265110587
20
194.68064725261291
10
530.07318299012195
20
194.70471231297083
10
528.30577785805224
20
194.37737037568445
10
526.64581881617335
20
193.72263426936811
10
525.14043095878299
20
192.76451720104674
10
523.83674437366415
20
191.52703184212626
10
522.78188734829064
20
190.0341915489563
10
522.02298933475254
20
188.31000745219433
10
521.62350708247641
20
186.46912220601843
10
521.59943912007782
20
184.64141181908033
10
521.92677004308598
20
182.87400962158969
10
522.58148655293621
20
181.21404968865676
10
523.53957305654797
20
179.70866382896497
10
524.7770147623354
20
178.40498490267117
10
526.26979762109602
20
177.3501465288316
10
527.9939076244749
20
176.5912816099007
10
529.74841766267855
20
176.20259057578679
10
528.5575110106638
20
174.85699436191913
10
528.05784755724812
20
174.00000000000006
10
522.00000889599335
20
174.00000000000006
10
522.00000889599335
20
178.79000000000005
10
514.49997889599342
20
185.00012999999996
10
506.99998889599334
20
178.79000000000005
10
507.00000889599329
20
174.00000000000006
10
492.00000889599329
20
174.00000000000006
10
492.00000889599329
20
178.79000000000005
10
484.49997889599337
20
185.00012999999996
10
476.99998889599334
20
178.79000000000005
10
477.00000889599329
20
174.00000000000006
10
462.00000889599329
20
174.00000000000006
10
462.00000889599329
20
178.79000000000005
10
454.50000889599329
20
185
10
447.00000889599329
20
178.79000000000005
10
447.00000889599329
20
174.00000000000006
10
432.00000889599329
20
174.00000000000006
10
432.00000889599329
20
178.79000000000005
10
424.50000889599329
20
185
10
417.00000889599329
20
178.79000000000005
10
417.00000889599329
20
174.00000000000006
10
402.00000889599329
20
174.00000000000006
10
402.00000889599329
20
178.79000000000005
10
394.50000889599329
20
185
10
387.00000889599329
20
178.79000000000005
10
387.00000889599329
20
174.00000000000006
10
372.00000889599329
20
174.00000000000006
10
372.00000889599329
20
178.79000000000005
10
364.50000889599329
20
185
10
357.00000889599329
20
178.79000000000005
10
357.00000889599329
20
137.99999999999997
10
372.00000889599329
20
137.99999999999997
10
372.00000889599329
20
149.00000000000006
10
387.00000889599329
20
149.00000000000006
10
387.00000889599329
20
137.99999999999997
10
402.00000889599329
20
137.99999999999997
10
402.00000889599329
20
149.00000000000006
10
417.00000889599329
20
149.00000000000006
10
417.00000889599329
20
137.99999999999997
10
432.00000889599329
20
137.99999999999997
10
432.00000889599329
20
149.00000000000006
10
447.00000889599329
20
149.00000000000006
10
447.00000889599329
20
137.99999999999997
10
462.00000889599329
20
137.99999999999997
10
462.00000889599329
20
149.00000000000006
10
477.00000889599329
20
149.00000000000006
10
477.00000889599329
20
137.99999999999997
10
492.00000889599329
20
137.99999999999997
10
492.00000889599329
20
149.00000000000006
10
507.00000889599329
20
149.00000000000006
10
507.00000889599329
20
137.99999999999997
10
522.00000889599335
20
137.99999999999997
10
522.00000889599335
20
149.00000000000006
10
537.00000889599335
20
149.00000000000006
0
LWPOLYLINE
5
101
100
AcDbEntity
8
0
100
AcDbPolyline
90
4
70
1
43
0.0
10
492.00000889599329
20
154.00000000000006
10
492.00000889599329
20
169.00000000000006
10
507.00000889599329
20
169.00000000000006
10
507.00000889599329
20
154.00000000000006
0
LWPOLYLINE
5
102
100
AcDbEntity
8
0
100
AcDbPolyline
90
4
70
1
43
0.0
10
477.00000889599329
20
169.00000000000006
10
477.00000889599329
20
154.00000000000006
10
462.00000889599329
20
154.00000000000006
10
462.00000889599329
20
169.00000000000006
0
LWPOLYLINE
5
103
100
AcDbEntity
8
0
100
AcDbPolyline
90
40
70
1
43
0.0
10
540.06304689599324
20
186.93290499999989
10
541.07572989599328
20
187.50799900000004
10
542.16626689599332
20
187.931995
10
543.31868489599321
20
188.19422000000003
10
544.51700889599329
20
188.28400000000002
10
546.0883358959934
20
188.12853399999995
10
547.5849508959933
20
187.67374799999999
10
548.96479989599334
20
186.93706299999997
10
550.18582689599339
20
185.93589799999995
10
551.18699189599317
20
184.71487099999996
10
551.92367689599314
20
183.33502199999998
10
552.37846289599315
20
181.8384069999999
10
552.53392889599331
20
180.26707999999999
10
552.44414889599318
20
179.06875599999992
10
552.18192389599335
20
177.916338
10
551.75792789599325
20
176.82580099999996
10
551.18283389599333
20
175.81311799999995
10
550.46731589599324
20
174.89426399999999
10
549.62204789599321
20
174.08521199999996
10
548.65770089599334
20
173.401937
10
547.5849508959933
20
172.860412
10
546.44348689599337
20
172.48477899999997
10
545.2784418959933
20
172.28603199999995
10
544.10866089599335
20
172.26042199999995
10
542.95298489599327
20
172.40420299999997
10
541.83025789599333
20
172.71362499999995
10
540.75932089599326
20
173.18494099999995
10
539.75901789599311
20
173.814402
10
538.8481908959933
20
174.59826199999995
10
538.06433089599329
20
175.50908899999996
10
537.4348698959933
20
176.50939199999996
10
536.9635538959933
20
177.58032899999995
10
536.65413189599326
20
178.70305599999995
10
536.51035089599327
20
179.858732
10
536.5359608959933
20
181.02851299999998
10
536.73470789599332
20
182.19355800000002
10
537.11034089599332
20
183.33502199999998
10
537.6518658959933
20
184.40777199999999
10
538.33514089599328
20
185.37211899999994
10
539.14419289599334
20
186.21738699999995
0
LWPOLYLINE
5
104
100
AcDbEntity
8
0
100
AcDbPolyline
90
13
70
1
43
0.0
10
562.23200018612101
20
169.45596080820891
10
567.00000889599301
20
169.45946855642666
10
567.01138218127346
20
154.00000000000006
10
552.00000889599335
20
154.00000000000006
10
552.00000889599335
20
160.17415987898545
10
553.278925871973
20
160.09538102503555
10
555.06098086060558
20
160.33024602365003
10
556.79181984711397
20
160.91796201920766
10
558.41920083258151
20
161.86680501092567
10
559.8244618173369
20
163.12127199759814
10
560.91825280321564
20
164.58575097914405
10
561.69229979093825
20
166.20799295427162
10
562.13833078191453
20
167.93575092148046
0
LWPOLYLINE
5
105
100
AcDbEntity
8
0
100
AcDbPolyline
90
4
70
1
43
0.0
10
402.00000889599329
20
169.00000000000006
10
417.00000889599329
20
169.00000000000006
10
417.00000889599329
20
154.00000000000006
10
402.00000889599329
20
154.00000000000006
0
LWPOLYLINE
5
106
100
AcDbEntity
8
0
100
AcDbPolyline
90
4
70
1
43
0.0
10
432.00000889599329
20
154.00000000000006
10
432.00000889599329
20
169.00000000000006
10
447.00000889599329
20
169.00000000000006
10
447.00000889599329
20
154.00000000000006
0
LWPOLYLINE
5
107
100
AcDbEntity
8
0
100
AcDbPolyline
90
4
70
1
43
0.0
10
387.00000889599329
20
154.00000000000006
10
372.00000889599329
20
154.00000000000006
10
372.00000889599329
20
169.00000000000006
10
387.00000889599329
20
169.00000000000006
0
LWPOLYLINE
5
108
100
AcDbEntity
8
0
100
AcDbPolyline
90
13
70
1
43
0.0
10
537.00000889599335
20
160.17202539357626
10
537.00000889599335
20
154.00000000000006
10
522.00000889599335
20
154.00000000000006
10
522.00000889599335
20
169.00000000000006
10
526.83033807453182
20
169.00000000000006
10
526.89590813785833
20
167.93577383955935
10
527.34194411646217
20
166.20800890656574
10
528.11600806036222
20
164.58574595668495
10
529.20982403615778
20
163.12122699238571
10
530.61512100937216
20
161.86669501748511
10
532.24243698354417
20
160.91788803313051
10
533.97323595937371
20
160.33019804167537
10
535.75526993885239
20
160.09534804460623
0
ENDSEC
0
SECTION
2
OBJECTS
0
DICTIONARY
5
C
100
AcDbDictionary
3
ACAD_GROUP
350
D
3
ACAD_MLINESTYLE
350
17
0
DICTIONARY
5
D
100
AcDbDictionary
0
DICTIONARY
5
1A
330
C
100
AcDbDictionary
0
DICTIONARY
5
17
100
AcDbDictionary
0
ENDSEC
0
EOF
