0
SECTION
2
HEADER
9
$INSUNITS
70
4
9
$ACADVER
1
AC1014
9
$HANDSEED
5
FFFF
0
ENDSEC
0
SECTION
2
TABLES
0
TABLE
2
VPORT
5
8
100
AcDbSymbolTable
0
ENDTAB
0
TABLE
2
LTYPE
5
5
100
AcDbSymbolTable
0
LTYPE
5
14
100
AcDbSymbolTableRecord
100
AcDbLinetypeTableRecord
2
BYBLOCK
70
0
0
LTYPE
5
15
100
AcDbSymbolTableRecord
100
AcDbLinetypeTableRecord
2
BYLAYER
70
0
0
ENDTAB
0
TABLE
2
LAYER
5
2
100
AcDbSymbolTable
70
2
0
LAYER
5
50
100
AcDbSymbolTableRecord
100
AcDbLayerTableRecord
2
0
70
0
6
CONTINUOUS
0
ENDTAB
0
TABLE
2
STYLE
5
3
100
AcDbSymbolTable
70
1
0
STYLE
5
11
100
AcDbSymbolTableRecord
100
AcDbTextStyleTableRecord
2
STANDARD
70
0
0
ENDTAB
0
TABLE
2
VIEW
5
6
100
AcDbSymbolTable
70
0
0
ENDTAB
0
TABLE
2
UCS
5
7
100
AcDbSymbolTable
70
0
0
ENDTAB
0
TABLE
2
APPID
5
9
100
AcDbSymbolTable
70
2
0
APPID
5
12
100
AcDbSymbolTableRecord
100
AcDbRegAppTableRecord
2
ACAD
70
0
0
ENDTAB
0
TABLE
2
DIMSTYLE
5
A
100
AcDbSymbolTable
70
1
0
ENDTAB
0
TABLE
2
BLOCK_RECORD
5
1
100
AcDbSymbolTable
70
1
0
BLOCK_RECORD
5
1F
100
AcDbSymbolTableRecord
100
AcDbBlockTableRecord
2
*MODEL_SPACE
0
BLOCK_RECORD
5
1B
100
AcDbSymbolTableRecord
100
AcDbBlockTableRecord
2
*PAPER_SPACE
0
ENDTAB
0
ENDSEC
0
SECTION
2
BLOCKS
0
BLOCK
5
20
100
AcDbEntity
100
AcDbBlockBegin
2
*MODEL_SPACE
0
ENDBLK
5
21
100
AcDbEntity
100
AcDbBlockEnd
0
BLOCK
5
1C
100
AcDbEntity
100
AcDbBlockBegin
2
*PAPER_SPACE
0
ENDBLK
5
1D
100
AcDbEntity
100
AcDbBlockEnd
0
ENDSEC
0
SECTION
2
ENTITIES
0
LWPOLYLINE
5
100
100
AcDbEntity
8
0
100
AcDbPolyline
90
4
70
1
43
0.0
10
-85
20
135
10
-95
20
135
10
-95
20
138
10
-85
20
138
0
LWPOLYLINE
5
101
100
AcDbEntity
8
0
100
AcDbPolyline
90
4
70
1
43
0.0
10
-170
20
135
10
-180
20
135
10
-180
20
138
10
-170
20
138
0
LWPOLYLINE
5
102
100
AcDbEntity
8
0
100
AcDbPolyline
90
8
70
1
43
0.0
10
-30
20
80
10
-30.000000000000007
20
78
42
-0.41421356237309503
10
-33.000000000000007
20
75
10
-367
20
75.000000000000014
42
-0.41421356237309503
10
-370
20
77.999999999999986
10
-370
20
80
42
-0.41421356237309503
10
-367
20
83
10
-32.999999999999972
20
82.999999999999986
42
-0.41421356237309337
0
LWPOLYLINE
5
103
100
AcDbEntity
8
0
100
AcDbPolyline
90
8
70
1
43
0.0
10
-57.5
20
214
10
-42.5
20
214
42
-0.41421356237309087
10
-40.000000000000014
20
211.50000000000003
10
-40.000000000000014
20
208.5
42
-0.41421356237310231
10
-42.500000000000007
20
206
10
-57.5
20
206
42
-0.41421356237309087
10
-59.999999999999986
20
208.49999999999997
10
-59.999999999999993
20
211.5
42
-0.41421356237310231
0
LWPOLYLINE
5
104
100
AcDbEntity
8
0
100
AcDbPolyline
90
8
70
1
43
0.0
10
-67.500000000000014
20
211.5
10
-67.500000000000014
20
208.5
42
-0.41421356237309609
10
-70.000000000000014
20
206
10
-90
20
206
42
-0.41421356237310542
10
-92.5
20
208.5
10
-92.500000000000014
20
211.5
42
-0.41421356237310542
10
-90
20
214
10
-70
20
214
42
-0.41421356237309503
0
LWPOLYLINE
5
105
100
AcDbEntity
8
0
100
AcDbPolyline
90
8
70
1
43
0.0
10
-202.50000000000003
20
226.5
10
-202.49999999999997
20
223.5
42
-0.41421356237308671
10
-205
20
220.99999999999997
10
-225
20
221
42
-0.41421356237310336
10
-227.5
20
223.5
10
-227.5
20
226.5
42
-0.41421356237310336
10
-225
20
229
10
-205
20
229
42
-0.41421356237310752
0
LWPOLYLINE
5
106
100
AcDbEntity
8
0
100
AcDbPolyline
90
8
70
1
43
0.0
10
-280
20
266
10
-300
20
266
42
-0.41421356237310336
10
-302.5
20
268.5
10
-302.5
20
271.5
42
-0.41421356237310336
10
-300
20
274
10
-280
20
274
42
-0.41421356237310752
10
-277.50000000000006
20
271.5
10
-277.5
20
268.5
42
-0.41421356237308671
0
LWPOLYLINE
5
107
100
AcDbEntity
8
0
100
AcDbPolyline
90
8
70
1
43
0.0
10
-340
20
301.5
10
-340
20
298.5
42
-0.4142135623730992
10
-342.5
20
296
10
-357.5
20
296
42
-0.41421356237307838
10
-360
20
298.5
10
-360
20
301.5
42
-0.4142135623730992
10
-357.5
20
304
10
-342.5
20
304
42
-0.41421356237307838
0
LWPOLYLINE
5
108
100
AcDbEntity
8
0
100
AcDbPolyline
90
8
70
1
43
0.0
10
-300
20
244
10
-280
20
244
42
-0.41421356237310752
10
-277.50000000000006
20
241.5
10
-277.49999999999994
20
238.5
42
-0.41421356237308671
10
-280
20
235.99999999999997
10
-300
20
236
42
-0.41421356237310336
10
-302.5
20
238.5
10
-302.5
20
241.5
42
-0.41421356237310336
0
LWPOLYLINE
5
109
100
AcDbEntity
8
0
100
AcDbPolyline
90
8
70
1
43
0.0
10
-250
20
266
10
-270
20
266
42
-0.41421356237310336
10
-272.5
20
268.5
10
-272.5
20
271.5
42
-0.41421356237310336
10
-270
20
274
10
-250
20
274
42
-0.41421356237310752
10
-247.50000000000003
20
271.5
10
-247.5
20
268.5
42
-0.41421356237308671
0
LWPOLYLINE
5
110
100
AcDbEntity
8
0
100
AcDbPolyline
90
8
70
1
43
0.0
10
-332.5
20
208.5
10
-332.5
20
211.5
42
-0.4142135623730992
10
-330
20
214.00000000000003
10
-310
20
214
42
-0.41421356237310752
10
-307.50000000000006
20
211.5
10
-307.49999999999994
20
208.5
42
-0.41421356237308671
10
-310
20
205.99999999999997
10
-330
20
206
42
-0.41421356237307838
0
LWPOLYLINE
5
111
100
AcDbEntity
8
0
100
AcDbPolyline
90
8
70
1
43
0.0
10
-327.5
20
250.99999999999997
10
-342.5
20
251
42
-0.41421356237307838
10
-345
20
253.5
10
-345
20
256.5
42
-0.4142135623730992
10
-342.5
20
259
10
-327.5
20
259
42
-0.41421356237307838
10
-325
20
256.5
10
-325
20
253.5
42
-0.4142135623730992
0
LWPOLYLINE
5
112
100
AcDbEntity
8
0
100
AcDbPolyline
90
8
70
1
43
0.0
10
-342.5
20
229.00000000000003
10
-327.5
20
229
42
-0.41421356237307838
10
-325
20
226.5
10
-325
20
223.5
42
-0.4142135623730992
10
-327.5
20
220.99999999999997
10
-342.5
20
221
42
-0.41421356237307838
10
-345
20
223.5
10
-345
20
226.5
42
-0.4142135623730992
0
LWPOLYLINE
5
113
100
AcDbEntity
8
0
100
AcDbPolyline
90
8
70
1
43
0.0
10
-287.5
20
223.5
10
-287.5
20
226.5
42
-0.41421356237310336
10
-285
20
229
10
-265
20
229
42
-0.41421356237310752
10
-262.50000000000006
20
226.5
10
-262.49999999999994
20
223.5
42
-0.41421356237308671
10
-265
20
220.99999999999997
10
-285
20
221
42
-0.41421356237310336
0
LWPOLYLINE
5
114
100
AcDbEntity
8
0
100
AcDbPolyline
90
8
70
1
43
0.0
10
-270
20
304
10
-250
20
304
42
-0.41421356237310752
10
-247.50000000000003
20
301.5
10
-247.49999999999997
20
298.5
42
-0.41421356237308671
10
-250
20
296
10
-270
20
296
42
-0.41421356237310336
10
-272.5
20
298.5
10
-272.5
20
301.5
42
-0.41421356237310336
0
LWPOLYLINE
5
115
100
AcDbEntity
8
0
100
AcDbPolyline
90
8
70
1
43
0.0
10
-205
20
281
10
-225
20
281
42
-0.41421356237310336
10
-227.5
20
283.5
10
-227.5
20
286.5
42
-0.41421356237310336
10
-225
20
289
10
-205
20
289
42
-0.41421356237310752
10
-202.50000000000003
20
286.5
10
-202.49999999999997
20
283.5
42
-0.41421356237308671
0
LWPOLYLINE
5
116
100
AcDbEntity
8
0
100
AcDbPolyline
90
8
70
1
43
0.0
10
-217.5
20
211.5
10
-217.49999999999997
20
208.5
42
-0.41421356237308671
10
-220
20
205.99999999999997
10
-240
20
206
42
-0.41421356237310336
10
-242.5
20
208.5
10
-242.5
20
211.5
42
-0.41421356237310336
10
-240
20
214
10
-220
20
214.00000000000003
42
-0.41421356237310752
0
LWPOLYLINE
5
117
100
AcDbEntity
8
0
100
AcDbPolyline
90
8
70
1
43
0.0
10
-59.999999999999986
20
238.5
10
-59.999999999999993
20
241.5
42
-0.41421356237310231
10
-57.5
20
244
10
-42.5
20
244
42
-0.41421356237309087
10
-40.000000000000014
20
241.50000000000003
10
-40.000000000000014
20
238.5
42
-0.41421356237310231
10
-42.500000000000007
20
236
10
-57.5
20
236
42
-0.41421356237309503
0
LWPOLYLINE
5
118
100
AcDbEntity
8
0
100
AcDbPolyline
90
8
70
1
43
0.0
10
-72.5
20
289
10
-57.5
20
289
42
-0.41421356237309087
10
-55.000000000000014
20
286.5
10
-55.000000000000014
20
283.5
42
-0.41421356237310231
10
-57.500000000000007
20
281
10
-72.5
20
281
42
-0.41421356237309087
10
-74.999999999999986
20
283.5
10
-74.999999999999986
20
286.5
42
-0.41421356237310231
0
LWPOLYLINE
5
119
100
AcDbEntity
8
0
100
AcDbPolyline
90
8
70
1
43
0.0
10
-115.00000000000001
20
281
10
-135
20
281
42
-0.41421356237310542
10
-137.5
20
283.5
10
-137.50000000000003
20
286.5
42
-0.41421356237310542
10
-135
20
289
10
-115
20
289
42
-0.41421356237309087
10
-112.50000000000001
20
286.5
10
-112.50000000000001
20
283.5
42
-0.41421356237309503
0
LWPOLYLINE
5
120
100
AcDbEntity
8
0
100
AcDbPolyline
90
8
70
1
43
0.0
10
-135
20
259
10
-115
20
259
42
-0.41421356237309087
10
-112.50000000000001
20
256.5
10
-112.50000000000001
20
253.5
42
-0.41421356237309503
10
-115.00000000000001
20
251
10
-135
20
251
42
-0.41421356237310542
10
-137.5
20
253.5
10
-137.50000000000003
20
256.5
42
-0.41421356237310542
0
LWPOLYLINE
5
121
100
AcDbEntity
8
0
100
AcDbPolyline
90
8
70
1
43
0.0
10
-165
20
289
10
-145
20
289
42
-0.41421356237309087
10
-142.50000000000003
20
286.5
10
-142.50000000000003
20
283.5
42
-0.41421356237309503
10
-145.00000000000003
20
281
10
-165
20
281
42
-0.41421356237310336
10
-167.5
20
283.5
10
-167.5
20
286.5
42
-0.41421356237310336
0
LWPOLYLINE
5
122
100
AcDbEntity
8
0
100
AcDbPolyline
90
8
70
1
43
0.0
10
-100.00000000000001
20
296
10
-120
20
296
42
-0.41421356237310542
10
-122.5
20
298.5
10
-122.50000000000001
20
301.5
42
-0.41421356237310542
10
-120
20
304
10
-100
20
304
42
-0.41421356237309087
10
-97.500000000000014
20
301.5
10
-97.500000000000014
20
298.5
42
-0.41421356237309503
0
LWPOLYLINE
5
123
100
AcDbEntity
8
0
100
AcDbPolyline
90
8
70
1
43
0.0
10
-30
20
251
10
-40
20
251
42
-0.41421356237309087
10
-42.499999999999986
20
253.49999999999997
10
-42.499999999999993
20
256.5
42
-0.41421356237310231
10
-40
20
259
10
-30
20
259
42
-0.41421356237310281
10
-27.500000000000014
20
256.5
10
-27.5
20
253.5
42
-0.41421356237310336
0
LWPOLYLINE
5
124
100
AcDbEntity
8
0
100
AcDbPolyline
90
8
70
1
43
0.0
10
-105
20
259
10
-85
20
259
42
-0.41421356237309087
10
-82.500000000000014
20
256.5
10
-82.500000000000014
20
253.5
42
-0.41421356237309503
10
-85.000000000000014
20
251
10
-105
20
251
42
-0.41421356237310542
10
-107.5
20
253.5
10
-107.50000000000001
20
256.5
42
-0.41421356237310542
0
LWPOLYLINE
5
125
100
AcDbEntity
8
0
100
AcDbPolyline
90
8
70
1
43
0.0
10
-55.000000000000014
20
256.5
10
-55.000000000000014
20
253.5
42
-0.41421356237310231
10
-57.500000000000007
20
251
10
-72.5
20
251
42
-0.41421356237309087
10
-74.999999999999986
20
253.49999999999997
10
-74.999999999999986
20
256.5
42
-0.41421356237310231
10
-72.5
20
259
10
-57.5
20
259
42
-0.41421356237309503
0
LWPOLYLINE
5
126
100
AcDbEntity
8
0
100
AcDbPolyline
90
8
70
1
43
0.0
10
-12.5
20
271.5
10
-12.500000000000002
20
268.5
42
-0.41421356237310308
10
-15
20
266
10
-25
20
266
42
-0.41421356237310281
10
-27.499999999999986
20
268.5
10
-27.499999999999996
20
271.5
42
-0.41421356237310281
10
-25
20
274
10
-15
20
274
42
-0.41421356237310336
0
LWPOLYLINE
5
127
100
AcDbEntity
8
0
100
AcDbPolyline
90
8
70
1
43
0.0
10
-180
20
274
10
-160
20
274
42
-0.41421356237310125
10
-157.50000000000003
20
271.5
10
-157.5
20
268.5
42
-0.41421356237309087
10
-160
20
266
10
-180
20
266
42
-0.41421356237310336
10
-182.5
20
268.5
10
-182.5
20
271.5
42
-0.41421356237310336
0
LWPOLYLINE
5
128
100
AcDbEntity
8
0
100
AcDbPolyline
90
8
70
1
43
0.0
10
-12.5
20
301.5
10
-12.500000000000002
20
298.5
42
-0.41421356237310308
10
-15
20
296
10
-25
20
296
42
-0.41421356237310281
10
-27.499999999999986
20
298.5
10
-27.499999999999996
20
301.5
42
-0.41421356237310281
10
-25
20
304
10
-15
20
304
42
-0.41421356237310336
0
LWPOLYLINE
5
129
100
AcDbEntity
8
0
100
AcDbPolyline
90
8
70
1
43
0.0
10
-180
20
244
10
-160
20
244
42
-0.41421356237310125
10
-157.50000000000003
20
241.5
10
-157.5
20
238.5
42
-0.41421356237309087
10
-160
20
235.99999999999997
10
-180
20
236
42
-0.41421356237310336
10
-182.5
20
238.5
10
-182.5
20
241.5
42
-0.41421356237310336
0
LWPOLYLINE
5
130
100
AcDbEntity
8
0
100
AcDbPolyline
90
8
70
1
43
0.0
10
-152.5
20
268.5
10
-152.50000000000003
20
271.5
42
-0.41421356237310542
10
-150
20
274
10
-130
20
274
42
-0.41421356237309087
10
-127.50000000000001
20
271.5
10
-127.50000000000001
20
268.5
42
-0.41421356237309503
10
-130.00000000000003
20
266
10
-150
20
266
42
-0.41421356237310542
0
LWPOLYLINE
5
131
100
AcDbEntity
8
0
100
AcDbPolyline
90
8
70
1
43
0.0
10
-42.500000000000007
20
296
10
-57.5
20
296
42
-0.41421356237309087
10
-59.999999999999986
20
298.5
10
-59.999999999999993
20
301.5
42
-0.41421356237310231
10
-57.5
20
304
10
-42.5
20
304
42
-0.41421356237309087
10
-40.000000000000014
20
301.5
10
-40.000000000000014
20
298.5
42
-0.41421356237310231
0
LWPOLYLINE
5
132
100
AcDbEntity
8
0
100
AcDbPolyline
90
8
70
1
43
0.0
10
-67.500000000000014
20
241.5
10
-67.500000000000014
20
238.5
42
-0.41421356237309609
10
-70.000000000000014
20
236
10
-90
20
236
42
-0.41421356237310542
10
-92.5
20
238.5
10
-92.500000000000014
20
241.5
42
-0.41421356237310542
10
-90
20
244
10
-70
20
244
42
-0.41421356237309503
0
LWPOLYLINE
5
133
100
AcDbEntity
8
0
100
AcDbPolyline
90
8
70
1
43
0.0
10
-210
20
214
10
-190
20
214
42
-0.41421356237310752
10
-187.50000000000003
20
211.5
10
-187.49999999999997
20
208.5
42
-0.41421356237308671
10
-190
20
205.99999999999997
10
-210
20
206
42
-0.41421356237310336
10
-212.5
20
208.5
10
-212.5
20
211.5
42
-0.41421356237310336
0
LWPOLYLINE
5
134
100
AcDbEntity
8
0
100
AcDbPolyline
90
8
70
1
43
0.0
10
-277.5
20
301.5
10
-277.49999999999994
20
298.5
42
-0.41421356237308671
10
-280
20
296
10
-300
20
296
42
-0.41421356237310336
10
-302.5
20
298.5
10
-302.5
20
301.5
42
-0.41421356237310336
10
-300
20
304
10
-280
20
304
42
-0.41421356237310752
0
LWPOLYLINE
5
135
100
AcDbEntity
8
0
100
AcDbPolyline
90
8
70
1
43
0.0
10
-387.5
20
238.5
10
-387.5
20
241.5
42
-0.4142135623730992
10
-385
20
244.00000000000003
10
-375
20
244
42
-0.41421356237307838
10
-372.5
20
241.5
10
-372.5
20
238.5
42
-0.4142135623730992
10
-375
20
235.99999999999997
10
-385
20
236
42
-0.41421356237307838
0
LWPOLYLINE
5
136
100
AcDbEntity
8
0
100
AcDbPolyline
90
8
70
1
43
0.0
10
-220
20
296
10
-240
20
296
42
-0.41421356237310336
10
-242.5
20
298.5
10
-242.5
20
301.5
42
-0.41421356237310336
10
-240
20
304
10
-220
20
304
42
-0.41421356237310752
10
-217.50000000000003
20
301.5
10
-217.49999999999997
20
298.5
42
-0.41421356237308671
0
LWPOLYLINE
5
137
100
AcDbEntity
8
0
100
AcDbPolyline
90
8
70
1
43
0.0
10
-157.50000000000003
20
211.5
10
-157.5
20
208.5
42
-0.41421356237309087
10
-160
20
205.99999999999997
10
-180
20
206
42
-0.41421356237310336
10
-182.5
20
208.5
10
-182.5
20
211.5
42
-0.41421356237310336
10
-180
20
214
10
-160
20
214
42
-0.41421356237310125
0
LWPOLYLINE
5
138
100
AcDbEntity
8
0
100
AcDbPolyline
90
8
70
1
43
0.0
10
-310
20
236
10
-330
20
236
42
-0.41421356237307838
10
-332.5
20
238.5
10
-332.5
20
241.5
42
-0.4142135623730992
10
-330
20
244.00000000000003
10
-310
20
244
42
-0.41421356237310752
10
-307.50000000000006
20
241.5
10
-307.5
20
238.5
42
-0.41421356237308671
0
LWPOLYLINE
5
139
100
AcDbEntity
8
0
100
AcDbPolyline
90
8
70
1
43
0.0
10
-375
20
296
10
-385
20
296
42
-0.41421356237307838
10
-387.5
20
298.5
10
-387.5
20
301.5
42
-0.4142135623730992
10
-385
20
304
10
-375
20
304
42
-0.41421356237307838
10
-372.5
20
301.5
10
-372.5
20
298.5
42
-0.4142135623730992
0
LWPOLYLINE
5
140
100
AcDbEntity
8
0
100
AcDbPolyline
90
8
70
1
43
0.0
10
-220
20
236
10
-240
20
236
42
-0.41421356237310336
10
-242.5
20
238.5
10
-242.5
20
241.5
42
-0.41421356237310336
10
-240
20
244
10
-220
20
244
42
-0.41421356237310752
10
-217.50000000000003
20
241.5
10
-217.5
20
238.5
42
-0.41421356237308671
0
LWPOLYLINE
5
141
100
AcDbEntity
8
0
100
AcDbPolyline
90
8
70
1
43
0.0
10
-357.5
20
286.5
10
-357.5
20
283.5
42
-0.4142135623730992
10
-360
20
281
10
-370
20
281
42
-0.41421356237307838
10
-372.5
20
283.5
10
-372.5
20
286.5
42
-0.4142135623730992
10
-370
20
289
10
-360
20
289
42
-0.41421356237307838
0
LWPOLYLINE
5
142
100
AcDbEntity
8
0
100
AcDbPolyline
90
8
70
1
43
0.0
10
-292.50000000000006
20
286.5
10
-292.49999999999994
20
283.5
42
-0.41421356237308671
10
-295
20
281
10
-315
20
281
42
-0.41421356237310336
10
-317.5
20
283.5
10
-317.5
20
286.5
42
-0.41421356237310336
10
-315
20
289
10
-295
20
289
42
-0.41421356237310752
0
LWPOLYLINE
5
143
100
AcDbEntity
8
0
100
AcDbPolyline
90
8
70
1
43
0.0
10
-270
20
244
10
-250
20
244
42
-0.41421356237310752
10
-247.50000000000003
20
241.5
10
-247.49999999999997
20
238.5
42
-0.41421356237308671
10
-250
20
235.99999999999997
10
-270
20
236
42
-0.41421356237310336
10
-272.5
20
238.5
10
-272.5
20
241.5
42
-0.41421356237310336
0
LWPOLYLINE
5
144
100
AcDbEntity
8
0
100
AcDbPolyline
90
8
70
1
43
0.0
10
-385
20
274
10
-375
20
274
42
-0.41421356237307838
10
-372.5
20
271.5
10
-372.5
20
268.5
42
-0.4142135623730992
10
-375
20
266
10
-385
20
266
42
-0.41421356237307838
10
-387.5
20
268.5
10
-387.5
20
271.5
42
-0.4142135623730992
0
LWPOLYLINE
5
145
100
AcDbEntity
8
0
100
AcDbPolyline
90
8
70
1
43
0.0
10
-150
20
214
10
-130
20
214
42
-0.41421356237309087
10
-127.50000000000001
20
211.50000000000003
10
-127.50000000000001
20
208.5
42
-0.41421356237309503
10
-130.00000000000003
20
206
10
-150
20
206
42
-0.41421356237310542
10
-152.5
20
208.5
10
-152.50000000000003
20
211.5
42
-0.41421356237310542
0
LWPOLYLINE
5
146
100
AcDbEntity
8
0
100
AcDbPolyline
90
8
70
1
43
0.0
10
-292.5
20
226.5
10
-292.49999999999994
20
223.5
42
-0.41421356237308671
10
-295
20
220.99999999999997
10
-315
20
221
42
-0.41421356237310336
10
-317.5
20
223.5
10
-317.5
20
226.5
42
-0.41421356237310336
10
-315
20
229
10
-295
20
229.00000000000003
42
-0.41421356237310752
0
LWPOLYLINE
5
147
100
AcDbEntity
8
0
100
AcDbPolyline
90
8
70
1
43
0.0
10
-232.50000000000003
20
226.5
10
-232.49999999999997
20
223.5
42
-0.41421356237308671
10
-235
20
220.99999999999997
10
-255
20
221
42
-0.41421356237310336
10
-257.5
20
223.5
10
-257.5
20
226.5
42
-0.41421356237310336
10
-255
20
229
10
-235
20
229
42
-0.41421356237310752
0
LWPOLYLINE
5
148
100
AcDbEntity
8
0
100
AcDbPolyline
90
8
70
1
43
0.0
10
-375
20
205.99999999999997
10
-385
20
206
42
-0.41421356237307838
10
-387.5
20
208.5
10
-387.5
20
211.5
42
-0.4142135623730992
10
-385
20
214.00000000000003
10
-375
20
214
42
-0.41421356237307838
10
-372.5
20
211.5
10
-372.5
20
208.5
42
-0.4142135623730992
0
LWPOLYLINE
5
149
100
AcDbEntity
8
0
100
AcDbPolyline
90
8
70
1
43
0.0
10
-285
20
259
10
-265
20
259
42
-0.41421356237310752
10
-262.50000000000006
20
256.5
10
-262.49999999999994
20
253.5
42
-0.41421356237308671
10
-265
20
250.99999999999997
10
-285
20
251
42
-0.41421356237310336
10
-287.5
20
253.5
10
-287.5
20
256.5
42
-0.41421356237310336
0
LWPOLYLINE
5
150
100
AcDbEntity
8
0
100
AcDbPolyline
90
8
70
1
43
0.0
10
-55.000000000000014
20
226.5
10
-55.000000000000014
20
223.5
42
-0.41421356237310231
10
-57.500000000000007
20
221
10
-72.5
20
221
42
-0.41421356237309087
10
-74.999999999999986
20
223.49999999999997
10
-74.999999999999986
20
226.5
42
-0.41421356237310231
10
-72.5
20
229
10
-57.5
20
229
42
-0.41421356237309503
0
LWPOLYLINE
5
151
100
AcDbEntity
8
0
100
AcDbPolyline
90
8
70
1
43
0.0
10
-357.5
20
244
10
-342.5
20
244
42
-0.41421356237307838
10
-340
20
241.5
10
-340
20
238.5
42
-0.4142135623730992
10
-342.5
20
235.99999999999997
10
-357.5
20
236
42
-0.41421356237307838
10
-360
20
238.5
10
-360
20
241.5
42
-0.4142135623730992
0
LWPOLYLINE
5
152
100
AcDbEntity
8
0
100
AcDbPolyline
90
8
70
1
43
0.0
10
-12.500000000000014
20
211.5
10
-12.500000000000002
20
208.5
42
-0.41421356237310308
10
-15
20
206
10
-25
20
206
42
-0.41421356237310281
10
-27.499999999999986
20
208.5
10
-27.499999999999996
20
211.5
42
-0.41421356237310281
10
-25
20
214
10
-15
20
214
42
-0.41421356237310336
0
LWPOLYLINE
5
153
100
AcDbEntity
8
0
100
AcDbPolyline
90
8
70
1
43
0.0
10
-310
20
296
10
-330
20
296
42
-0.41421356237307838
10
-332.5
20
298.5
10
-332.5
20
301.5
42
-0.4142135623730992
10
-330
20
304
10
-310
20
304
42
-0.41421356237310752
10
-307.50000000000006
20
301.5
10
-307.5
20
298.5
42
-0.41421356237308671
0
LWPOLYLINE
5
154
100
AcDbEntity
8
0
100
AcDbPolyline
90
8
70
1
43
0.0
10
-212.5
20
268.5
10
-212.5
20
271.5
42
-0.41421356237310336
10
-210
20
274
10
-190
20
274
42
-0.41421356237310752
10
-187.50000000000003
20
271.5
10
-187.49999999999997
20
268.5
42
-0.41421356237308671
10
-190
20
266
10
-210
20
266
42
-0.41421356237310336
0
LWPOLYLINE
5
155
100
AcDbEntity
8
0
100
AcDbPolyline
90
8
70
1
43
0.0
10
-225
20
259
10
-205
20
259
42
-0.41421356237310752
10
-202.50000000000003
20
256.5
10
-202.49999999999997
20
253.5
42
-0.41421356237308671
10
-205
20
250.99999999999997
10
-225
20
251
42
-0.41421356237310336
10
-227.5
20
253.5
10
-227.5
20
256.5
42
-0.41421356237310336
0
LWPOLYLINE
5
156
100
AcDbEntity
8
0
100
AcDbPolyline
90
8
70
1
43
0.0
10
-255
20
259
10
-235
20
259
42
-0.41421356237310752
10
-232.50000000000003
20
256.5
10
-232.49999999999997
20
253.5
42
-0.41421356237308671
10
-235
20
250.99999999999997
10
-255
20
251
42
-0.41421356237310336
10
-257.5
20
253.5
10
-257.5
20
256.5
42
-0.41421356237310336
0
LWPOLYLINE
5
157
100
AcDbEntity
8
0
100
AcDbPolyline
90
8
70
1
43
0.0
10
-240
20
274
10
-220
20
274
42
-0.41421356237310752
10
-217.50000000000003
20
271.5
10
-217.49999999999997
20
268.5
42
-0.41421356237308671
10
-220
20
266
10
-240
20
266
42
-0.41421356237310336
10
-242.5
20
268.5
10
-242.5
20
271.5
42
-0.41421356237310336
0
LWPOLYLINE
5
158
100
AcDbEntity
8
0
100
AcDbPolyline
90
8
70
1
43
0.0
10
-280
20
206
10
-300
20
206
42
-0.41421356237310336
10
-302.5
20
208.5
10
-302.5
20
211.5
42
-0.41421356237310336
10
-300
20
214
10
-280
20
214
42
-0.41421356237310752
10
-277.50000000000006
20
211.5
10
-277.5
20
208.5
42
-0.41421356237308671
0
LWPOLYLINE
5
159
100
AcDbEntity
8
0
100
AcDbPolyline
90
8
70
1
43
0.0
10
-310
20
266
10
-330
20
266
42
-0.41421356237307838
10
-332.5
20
268.5
10
-332.5
20
271.5
42
-0.4142135623730992
10
-330
20
274
10
-310
20
274
42
-0.41421356237310752
10
-307.50000000000006
20
271.5
10
-307.5
20
268.5
42
-0.41421356237308671
0
LWPOLYLINE
5
160
100
AcDbEntity
8
0
100
AcDbPolyline
90
8
70
1
43
0.0
10
-272.5
20
208.5
10
-272.5
20
211.5
42
-0.41421356237310336
10
-270
20
214
10
-250
20
214
42
-0.41421356237310752
10
-247.50000000000003
20
211.5
10
-247.49999999999997
20
208.5
42
-0.41421356237308671
10
-250
20
205.99999999999997
10
-270
20
206
42
-0.41421356237310336
0
LWPOLYLINE
5
161
100
AcDbEntity
8
0
100
AcDbPolyline
90
8
70
1
43
0.0
10
-145.00000000000003
20
251
10
-165
20
251
42
-0.41421356237310336
10
-167.5
20
253.5
10
-167.5
20
256.5
42
-0.41421356237310336
10
-165
20
259
10
-145
20
259
42
-0.41421356237309087
10
-142.50000000000003
20
256.5
10
-142.50000000000003
20
253.5
42
-0.41421356237309503
0
LWPOLYLINE
5
162
100
AcDbEntity
8
0
100
AcDbPolyline
90
8
70
1
43
0.0
10
-82.500000000000014
20
286.5
10
-82.500000000000014
20
283.5
42
-0.41421356237309503
10
-85.000000000000014
20
281
10
-105
20
281
42
-0.41421356237310542
10
-107.5
20
283.5
10
-107.50000000000001
20
286.5
42
-0.41421356237310542
10
-105
20
289
10
-85
20
289
42
-0.41421356237309503
0
LWPOLYLINE
5
163
100
AcDbEntity
8
0
100
AcDbPolyline
90
8
70
1
43
0.0
10
-90
20
274
10
-70
20
274
42
-0.41421356237309087
10
-67.500000000000014
20
271.5
10
-67.500000000000014
20
268.5
42
-0.41421356237309609
10
-70.000000000000014
20
266
10
-90
20
266
42
-0.41421356237310542
10
-92.5
20
268.5
10
-92.500000000000014
20
271.5
42
-0.41421356237310542
0
LWPOLYLINE
5
164
100
AcDbEntity
8
0
100
AcDbPolyline
90
8
70
1
43
0.0
10
-27.499999999999986
20
238.5
10
-27.499999999999996
20
241.5
42
-0.41421356237310281
10
-25
20
244
10
-15
20
244
42
-0.41421356237310336
10
-12.500000000000014
20
241.5
10
-12.500000000000002
20
238.5
42
-0.41421356237310308
10
-15
20
236
10
-25
20
236
42
-0.41421356237310281
0
LWPOLYLINE
5
165
100
AcDbEntity
8
0
100
AcDbPolyline
90
8
70
1
43
0.0
10
-130.00000000000003
20
296
10
-150
20
296
42
-0.41421356237310542
10
-152.5
20
298.5
10
-152.50000000000003
20
301.5
42
-0.41421356237310542
10
-150
20
304
10
-130
20
304
42
-0.41421356237309087
10
-127.50000000000001
20
301.5
10
-127.50000000000001
20
298.5
42
-0.41421356237309503
0
LWPOLYLINE
5
166
100
AcDbEntity
8
0
100
AcDbPolyline
90
8
70
1
43
0.0
10
-120
20
274
10
-100
20
274
42
-0.41421356237309087
10
-97.500000000000014
20
271.5
10
-97.500000000000014
20
268.5
42
-0.41421356237309503
10
-100.00000000000001
20
266
10
-120
20
266
42
-0.41421356237310542
10
-122.5
20
268.5
10
-122.50000000000001
20
271.5
42
-0.41421356237310542
0
LWPOLYLINE
5
167
100
AcDbEntity
8
0
100
AcDbPolyline
90
8
70
1
43
0.0
10
-127.50000000000001
20
241.5
10
-127.50000000000001
20
238.5
42
-0.41421356237309503
10
-130.00000000000003
20
236
10
-150
20
236
42
-0.41421356237310542
10
-152.5
20
238.5
10
-152.50000000000003
20
241.5
42
-0.41421356237310542
10
-150
20
244
10
-130
20
244
42
-0.41421356237309503
0
LWPOLYLINE
5
168
100
AcDbEntity
8
0
100
AcDbPolyline
90
8
70
1
43
0.0
10
-190
20
296
10
-210
20
296
42
-0.41421356237310336
10
-212.5
20
298.5
10
-212.5
20
301.5
42
-0.41421356237310336
10
-210
20
304
10
-190
20
304
42
-0.41421356237310752
10
-187.50000000000003
20
301.5
10
-187.49999999999997
20
298.5
42
-0.41421356237308671
0
LWPOLYLINE
5
169
100
AcDbEntity
8
0
100
AcDbPolyline
90
8
70
1
43
0.0
10
-175
20
251
10
-195
20
251
42
-0.41421356237310336
10
-197.5
20
253.5
10
-197.5
20
256.5
42
-0.41421356237310336
10
-195
20
259
10
-175
20
259
42
-0.41421356237310752
10
-172.50000000000003
20
256.5
10
-172.5
20
253.5
42
-0.41421356237308671
0
LWPOLYLINE
5
170
100
AcDbEntity
8
0
100
AcDbPolyline
90
8
70
1
43
0.0
10
-160
20
296
10
-180
20
296
42
-0.41421356237310336
10
-182.5
20
298.5
10
-182.5
20
301.5
42
-0.41421356237310336
10
-180
20
304
10
-160
20
304
42
-0.41421356237310125
10
-157.50000000000003
20
301.5
10
-157.50000000000003
20
298.5
42
-0.41421356237309087
0
LWPOLYLINE
5
171
100
AcDbEntity
8
0
100
AcDbPolyline
90
8
70
1
43
0.0
10
-27.500000000000014
20
286.5
10
-27.5
20
283.5
42
-0.41421356237310336
10
-30
20
281
10
-40
20
281
42
-0.41421356237309087
10
-42.499999999999986
20
283.5
10
-42.499999999999993
20
286.5
42
-0.41421356237310231
10
-40
20
289
10
-30
20
289
42
-0.41421356237310281
0
LWPOLYLINE
5
172
100
AcDbEntity
8
0
100
AcDbPolyline
90
8
70
1
43
0.0
10
-175
20
281
10
-195
20
281
42
-0.41421356237310336
10
-197.5
20
283.5
10
-197.5
20
286.5
42
-0.41421356237310336
10
-195
20
289
10
-175
20
289
42
-0.41421356237310752
10
-172.50000000000003
20
286.5
10
-172.5
20
283.5
42
-0.41421356237308671
0
LWPOLYLINE
5
173
100
AcDbEntity
8
0
100
AcDbPolyline
90
8
70
1
43
0.0
10
-120
20
244
10
-100
20
244
42
-0.41421356237309087
10
-97.500000000000014
20
241.50000000000003
10
-97.500000000000014
20
238.5
42
-0.41421356237309503
10
-100.00000000000001
20
236
10
-120
20
236
42
-0.41421356237310542
10
-122.5
20
238.5
10
-122.50000000000001
20
241.5
42
-0.41421356237310542
0
LWPOLYLINE
5
174
100
AcDbEntity
8
0
100
AcDbPolyline
90
8
70
1
43
0.0
10
-40.000000000000014
20
271.5
10
-40.000000000000014
20
268.5
42
-0.41421356237310231
10
-42.500000000000007
20
266
10
-57.5
20
266
42
-0.41421356237309087
10
-59.999999999999986
20
268.5
10
-59.999999999999993
20
271.5
42
-0.41421356237310231
10
-57.5
20
274
10
-42.5
20
274
42
-0.41421356237309503
0
LWPOLYLINE
5
175
100
AcDbEntity
8
0
100
AcDbPolyline
90
8
70
1
43
0.0
10
-92.5
20
298.5
10
-92.500000000000014
20
301.5
42
-0.41421356237310542
10
-90
20
304
10
-70
20
304
42
-0.41421356237309087
10
-67.500000000000014
20
301.5
10
-67.500000000000014
20
298.5
42
-0.41421356237309609
10
-70.000000000000014
20
296
10
-90
20
296
42
-0.41421356237310542
0
LWPOLYLINE
5
176
100
AcDbEntity
8
0
100
AcDbPolyline
90
8
70
1
43
0.0
10
-232.5
20
286.5
10
-232.49999999999997
20
283.5
42
-0.41421356237308671
10
-235
20
281
10
-255
20
281
42
-0.41421356237310336
10
-257.5
20
283.5
10
-257.5
20
286.5
42
-0.41421356237310336
10
-255
20
289
10
-235
20
289
42
-0.41421356237310752
0
LWPOLYLINE
5
177
100
AcDbEntity
8
0
100
AcDbPolyline
90
8
70
1
43
0.0
10
-107.5
20
223.5
10
-107.50000000000001
20
226.5
42
-0.41421356237310542
10
-105
20
229
10
-85
20
229
42
-0.41421356237309087
10
-82.500000000000014
20
226.50000000000003
10
-82.500000000000014
20
223.5
42
-0.41421356237309503
10
-85.000000000000014
20
221
10
-105
20
221
42
-0.41421356237310542
0
LWPOLYLINE
5
178
100
AcDbEntity
8
0
100
AcDbPolyline
90
8
70
1
43
0.0
10
-357.5
20
274
10
-342.5
20
274
42
-0.41421356237307838
10
-340
20
271.5
10
-340
20
268.5
42
-0.4142135623730992
10
-342.5
20
266
10
-357.5
20
266
42
-0.41421356237307838
10
-360
20
268.5
10
-360
20
271.5
42
-0.4142135623730992
0
LWPOLYLINE
5
179
100
AcDbEntity
8
0
100
AcDbPolyline
90
8
70
1
43
0.0
10
-190
20
235.99999999999997
10
-210
20
236
42
-0.41421356237310336
10
-212.5
20
238.5
10
-212.5
20
241.5
42
-0.41421356237310336
10
-210
20
244
10
-190
20
244
42
-0.41421356237310752
10
-187.50000000000003
20
241.5
10
-187.49999999999997
20
238.5
42
-0.41421356237308671
0
LWPOLYLINE
5
180
100
AcDbEntity
8
0
100
AcDbPolyline
90
8
70
1
43
0.0
10
-142.50000000000003
20
226.5
10
-142.50000000000003
20
223.5
42
-0.41421356237309503
10
-145.00000000000003
20
221
10
-165
20
221
42
-0.41421356237310336
10
-167.5
20
223.5
10
-167.5
20
226.5
42
-0.41421356237310336
10
-165
20
229
10
-145
20
229
42
-0.41421356237309503
0
LWPOLYLINE
5
181
100
AcDbEntity
8
0
100
AcDbPolyline
90
8
70
1
43
0.0
10
-370
20
229
10
-360
20
229
42
-0.41421356237307838
10
-357.5
20
226.5
10
-357.5
20
223.5
42
-0.4142135623730992
10
-360
20
220.99999999999997
10
-370
20
221
42
-0.41421356237307838
10
-372.5
20
223.5
10
-372.5
20
226.5
42
-0.4142135623730992
0
LWPOLYLINE
5
182
100
AcDbEntity
8
0
100
AcDbPolyline
90
8
70
1
43
0.0
10
-342.5
20
205.99999999999997
10
-357.5
20
206
42
-0.41421356237307838
10
-360
20
208.5
10
-360
20
211.5
42
-0.4142135623730992
10
-357.5
20
214.00000000000003
10
-342.5
20
214
42
-0.41421356237307838
10
-340
20
211.5
10
-340
20
208.5
42
-0.4142135623730992
0
LWPOLYLINE
5
183
100
AcDbEntity
8
0
100
AcDbPolyline
90
8
70
1
43
0.0
10
-285
20
289
10
-265
20
289
42
-0.41421356237310752
10
-262.50000000000006
20
286.5
10
-262.49999999999994
20
283.5
42
-0.41421356237308671
10
-265
20
281
10
-285
20
281
42
-0.41421356237310336
10
-287.5
20
283.5
10
-287.5
20
286.5
42
-0.41421356237310336
0
LWPOLYLINE
5
184
100
AcDbEntity
8
0
100
AcDbPolyline
90
8
70
1
43
0.0
10
-372.5
20
253.5
10
-372.5
20
256.5
42
-0.4142135623730992
10
-370
20
259
10
-360
20
259
42
-0.41421356237307838
10
-357.5
20
256.5
10
-357.5
20
253.5
42
-0.4142135623730992
10
-360
20
250.99999999999997
10
-370
20
251
42
-0.41421356237307838
0
LWPOLYLINE
5
185
100
AcDbEntity
8
0
100
AcDbPolyline
90
8
70
1
43
0.0
10
-295
20
250.99999999999997
10
-315
20
251
42
-0.41421356237310336
10
-317.5
20
253.5
10
-317.5
20
256.5
42
-0.41421356237310336
10
-315
20
259
10
-295
20
259
42
-0.41421356237310752
10
-292.50000000000006
20
256.5
10
-292.49999999999994
20
253.5
42
-0.41421356237308671
0
LWPOLYLINE
5
186
100
AcDbEntity
8
0
100
AcDbPolyline
90
8
70
1
43
0.0
10
-327.5
20
281
10
-342.5
20
281
42
-0.41421356237307838
10
-345
20
283.5
10
-345
20
286.5
42
-0.4142135623730992
10
-342.5
20
289
10
-327.5
20
289
42
-0.41421356237307838
10
-325
20
286.5
10
-325
20
283.5
42
-0.4142135623730992
0
LWPOLYLINE
5
187
100
AcDbEntity
8
0
100
AcDbPolyline
90
8
70
1
43
0.0
10
-195
20
229
10
-175
20
229
42
-0.41421356237310752
10
-172.50000000000003
20
226.5
10
-172.49999999999997
20
223.5
42
-0.41421356237308671
10
-175
20
220.99999999999997
10
-195
20
221
42
-0.41421356237310336
10
-197.5
20
223.5
10
-197.5
20
226.5
42
-0.41421356237310336
0
LWPOLYLINE
5
188
100
AcDbEntity
8
0
100
AcDbPolyline
90
8
70
1
43
0.0
10
-115.00000000000001
20
221
10
-135
20
221
42
-0.41421356237310542
10
-137.5
20
223.5
10
-137.50000000000003
20
226.5
42
-0.41421356237310542
10
-135
20
229
10
-115
20
229
42
-0.41421356237309087
10
-112.50000000000001
20
226.50000000000003
10
-112.50000000000001
20
223.5
42
-0.41421356237309503
0
LWPOLYLINE
5
189
100
AcDbEntity
8
0
100
AcDbPolyline
90
8
70
1
43
0.0
10
-40
20
229
10
-30
20
229
42
-0.41421356237310281
10
-27.500000000000014
20
226.5
10
-27.5
20
223.5
42
-0.41421356237310336
10
-30
20
221
10
-40
20
221
42
-0.41421356237309087
10
-42.499999999999986
20
223.49999999999997
10
-42.499999999999993
20
226.5
42
-0.41421356237310231
0
LWPOLYLINE
5
190
100
AcDbEntity
8
0
100
AcDbPolyline
90
8
70
1
43
0.0
10
-97.500000000000014
20
211.5
10
-97.500000000000014
20
208.5
42
-0.41421356237309503
10
-100.00000000000001
20
206
10
-120
20
206
42
-0.41421356237310542
10
-122.5
20
208.5
10
-122.50000000000001
20
211.5
42
-0.41421356237310542
10
-120
20
214
10
-100
20
214
42
-0.41421356237309503
0
LWPOLYLINE
5
191
100
AcDbEntity
8
0
100
AcDbPolyline
90
8
70
1
43
0.0
10
-165.00000000000006
20
359.93995039578584
10
-234.99999999999997
20
359.9399503957859
42
-0.41421356237309193
10
-244.99999999999997
20
369.93995039578584
10
-244.99999999999994
20
370
42
-0.41421356237309398
10
-234.99999999999997
20
380
10
-165.00000000000006
20
380
42
-0.41421356237309398
10
-155.00000000000006
20
370
10
-155.00000000000003
20
369.9399503957859
42
-0.41421356237309193
0
LWPOLYLINE
5
192
100
AcDbEntity
8
0
100
AcDbPolyline
90
4
70
1
43
0.0
10
0
20
403
10
-400
20
403
10
-400
20
2.9999999999999716
10
0
20
3.0000000000000004
0
ENDSEC
0
SECTION
2
OBJECTS
0
DICTIONARY
5
C
100
AcDbDictionary
3
ACAD_GROUP
350
D
3
ACAD_MLINESTYLE
350
17
0
DICTIONARY
5
D
100
AcDbDictionary
0
DICTIONARY
5
1A
330
C
100
AcDbDictionary
0
DICTIONARY
5
17
100
AcDbDictionary
0
ENDSEC
0
EOF
